<svg width="319" height="191" viewBox="0 0 319 191" fill="none" xmlns="http://www.w3.org/2000/svg">
<rect y="191" width="191" height="319" rx="11" transform="rotate(-90 0 191)" fill="url(#paint0_radial_304_813)"/>
<mask id="mask0_304_813" style="mask-type:alpha" maskUnits="userSpaceOnUse" x="18" y="96" width="42" height="30">
    <rect x="18" y="96" width="42" height="29.8251" rx="3" fill="url(#paint1_linear_304_813)"/>
</mask>
<g mask="url(#mask0_304_813)">
    <rect x="18" y="96" width="42" height="29.8251" rx="3" fill="url(#paint2_linear_304_813)"/>
    <path fill-rule="evenodd" clip-rule="evenodd" d="M27.6974 105.22H18V104.921H27.8026L31.65 107.981V116.317L28.5621 119.386H18V119.088H28.4379L31.35 116.193V108.125L27.6974 105.22Z" fill="#868686" fill-opacity="0.42"/>
    <path fill-rule="evenodd" clip-rule="evenodd" d="M49.569 101.491H60.75V101.193H49.431L44.85 106.507V116.31L49.431 121.623H60.75V121.325H49.569L45.15 116.2V106.617L49.569 101.491Z" fill="#868686" fill-opacity="0.42"/>
    <path fill-rule="evenodd" clip-rule="evenodd" d="M37.7804 100.545L30 94.7809L30.18 94.5087L38.0943 100.372V106.107H45V106.439H37.7804V100.545Z" fill="#868686" fill-opacity="0.42"/>
    <path fill-rule="evenodd" clip-rule="evenodd" d="M31.5 116.106H38.4V121.549L32.34 126.067L32.16 125.829L38.1 121.4V116.404H31.5V116.106Z" fill="#868686" fill-opacity="0.42"/>
    <path fill-rule="evenodd" clip-rule="evenodd" d="M45 116.106H38.1V121.549L44.16 126.067L44.34 125.829L38.4 121.4V116.404H45V116.106Z" fill="#868686" fill-opacity="0.42"/>
</g>
<rect x="18.25" y="96.25" width="41.5" height="29.3251" rx="2.75" stroke="white" stroke-width="0.5"/>
<mask id="path-10-outside-1_304_813" maskUnits="userSpaceOnUse" x="18" y="23" width="95" height="15" fill="black">
    <rect fill="white" x="18" y="23" width="95" height="15"/>
    <path d="M28.72 35H25.84V30.44H21.84V35H18.96V23.8H21.84V28.2H25.84V23.8H28.72V35ZM36.8875 23.8C38.0928 23.8 39.0048 24.1147 39.6235 24.744C40.2528 25.3627 40.5675 26.2747 40.5675 27.48V31.32C40.5675 32.5253 40.2528 33.4427 39.6235 34.072C39.0048 34.6907 38.0928 35 36.8875 35H30.6475V23.8H36.8875ZM37.6875 27.48C37.6875 26.52 37.2075 26.04 36.2475 26.04H33.5275V32.76H36.2475C37.2075 32.76 37.6875 32.28 37.6875 31.32V27.48ZM45.0431 35H42.1631V23.8H51.0431V26.04H45.0431V28.68H49.7631V30.92H45.0431V35ZM60.8031 34.84C58.4245 35.0533 56.4511 35.16 54.8831 35.16C53.8378 35.16 53.0698 34.9147 52.5791 34.424C52.0885 33.9333 51.8431 33.1653 51.8431 32.12V27C51.8431 25.88 52.0938 25.0693 52.5951 24.568C53.1071 24.056 53.9231 23.8 55.0431 23.8H60.8031V26.04H55.6831C55.0431 26.04 54.7231 26.36 54.7231 27V32.12C54.7231 32.3653 54.7925 32.5627 54.9311 32.712C55.0805 32.8507 55.2671 32.92 55.4911 32.92C55.7151 32.92 55.9605 32.92 56.2271 32.92C56.4938 32.9093 56.7711 32.8987 57.0591 32.888C57.3471 32.8773 57.6351 32.8667 57.9231 32.856C58.2218 32.8453 58.6005 32.824 59.0591 32.792C59.5285 32.76 60.1098 32.7227 60.8031 32.68V34.84ZM66.5459 32.68C69.4685 32.84 71.4472 32.92 72.4819 32.92C72.7272 32.92 72.9192 32.8507 73.0579 32.712C73.2072 32.5627 73.2819 32.3653 73.2819 32.12V30.68H69.6019C68.4819 30.68 67.6659 30.4293 67.1539 29.928C66.6525 29.416 66.4019 28.6 66.4019 27.48V27C66.4019 25.88 66.6525 25.0693 67.1539 24.568C67.6659 24.056 68.4819 23.8 69.6019 23.8H75.2179V26.04H70.2419C69.6019 26.04 69.2819 26.36 69.2819 27V27.32C69.2819 27.96 69.6019 28.28 70.2419 28.28H73.1219C74.1672 28.28 74.9352 28.5253 75.4259 29.016C75.9165 29.5067 76.1619 30.2747 76.1619 31.32V32.12C76.1619 33.1653 75.9165 33.9333 75.4259 34.424C74.9352 34.9147 74.1672 35.16 73.1219 35.16C72.5779 35.16 72.0019 35.1493 71.3939 35.128L69.9219 35.064C68.8339 35.0107 67.7085 34.936 66.5459 34.84V32.68ZM81.3606 32.84C81.926 32.84 82.566 32.7333 83.2806 32.52V26.52H86.0806V35H83.6006L83.4406 34.2C82.9393 34.5307 82.422 34.776 81.8886 34.936C81.366 35.0853 80.9233 35.16 80.5606 35.16H79.8406C79.1153 35.16 78.534 34.9413 78.0966 34.504C77.6593 34.0667 77.4406 33.4853 77.4406 32.76V26.52H80.2406V32.28C80.2406 32.44 80.294 32.5733 80.4006 32.68C80.5073 32.7867 80.6406 32.84 80.8006 32.84H81.3606ZM92.395 28.68C91.8297 28.68 91.1897 28.7867 90.475 29V32.84H92.875C93.3017 32.84 93.515 32.6267 93.515 32.2V29.24C93.515 29.08 93.4617 28.9467 93.355 28.84C93.2483 28.7333 93.115 28.68 92.955 28.68H92.395ZM90.475 35V37.72H87.675V26.52H90.155L90.315 27.32C90.8163 26.9893 91.3283 26.7493 91.851 26.6C92.3843 26.44 92.8323 26.36 93.195 26.36H93.915C94.6403 26.36 95.2217 26.5787 95.659 27.016C96.0963 27.4533 96.315 28.0347 96.315 28.76V32.44C96.315 33.24 96.0857 33.8693 95.627 34.328C95.179 34.776 94.555 35 93.755 35H90.475ZM102.633 28.84C101.961 28.84 101.268 29 100.553 29.32V35H97.7531V26.52H100.233L100.393 27.56C101.31 26.76 102.27 26.36 103.273 26.36H103.993V28.84H102.633ZM107.832 32.92C108.397 32.92 109.037 32.8133 109.752 32.6V31.64H107.432C107.272 31.64 107.139 31.6933 107.032 31.8C106.925 31.9067 106.872 32.04 106.872 32.2V32.36C106.872 32.52 106.925 32.6533 107.032 32.76C107.139 32.8667 107.272 32.92 107.432 32.92H107.832ZM104.872 26.68C106.824 26.4667 108.584 26.36 110.152 26.36C110.877 26.36 111.459 26.5787 111.896 27.016C112.333 27.4533 112.552 28.0347 112.552 28.76V35H110.072L109.912 34.2C109.411 34.5307 108.893 34.776 108.36 34.936C107.837 35.0853 107.395 35.16 107.032 35.16H106.472C105.747 35.16 105.165 34.9413 104.728 34.504C104.291 34.0667 104.072 33.4853 104.072 32.76V32.04C104.072 31.3147 104.291 30.7333 104.728 30.296C105.165 29.8587 105.747 29.64 106.472 29.64H109.752V29C109.752 28.84 109.699 28.7067 109.592 28.6C109.485 28.4933 109.352 28.44 109.192 28.44C108.499 28.44 107.731 28.472 106.888 28.536C106.056 28.6 105.384 28.648 104.872 28.68V26.68Z"/>
</mask>
<g filter="url(#filter0_i_304_813)">
    <path d="M28.72 35H25.84V30.44H21.84V35H18.96V23.8H21.84V28.2H25.84V23.8H28.72V35ZM36.8875 23.8C38.0928 23.8 39.0048 24.1147 39.6235 24.744C40.2528 25.3627 40.5675 26.2747 40.5675 27.48V31.32C40.5675 32.5253 40.2528 33.4427 39.6235 34.072C39.0048 34.6907 38.0928 35 36.8875 35H30.6475V23.8H36.8875ZM37.6875 27.48C37.6875 26.52 37.2075 26.04 36.2475 26.04H33.5275V32.76H36.2475C37.2075 32.76 37.6875 32.28 37.6875 31.32V27.48ZM45.0431 35H42.1631V23.8H51.0431V26.04H45.0431V28.68H49.7631V30.92H45.0431V35ZM60.8031 34.84C58.4245 35.0533 56.4511 35.16 54.8831 35.16C53.8378 35.16 53.0698 34.9147 52.5791 34.424C52.0885 33.9333 51.8431 33.1653 51.8431 32.12V27C51.8431 25.88 52.0938 25.0693 52.5951 24.568C53.1071 24.056 53.9231 23.8 55.0431 23.8H60.8031V26.04H55.6831C55.0431 26.04 54.7231 26.36 54.7231 27V32.12C54.7231 32.3653 54.7925 32.5627 54.9311 32.712C55.0805 32.8507 55.2671 32.92 55.4911 32.92C55.7151 32.92 55.9605 32.92 56.2271 32.92C56.4938 32.9093 56.7711 32.8987 57.0591 32.888C57.3471 32.8773 57.6351 32.8667 57.9231 32.856C58.2218 32.8453 58.6005 32.824 59.0591 32.792C59.5285 32.76 60.1098 32.7227 60.8031 32.68V34.84ZM66.5459 32.68C69.4685 32.84 71.4472 32.92 72.4819 32.92C72.7272 32.92 72.9192 32.8507 73.0579 32.712C73.2072 32.5627 73.2819 32.3653 73.2819 32.12V30.68H69.6019C68.4819 30.68 67.6659 30.4293 67.1539 29.928C66.6525 29.416 66.4019 28.6 66.4019 27.48V27C66.4019 25.88 66.6525 25.0693 67.1539 24.568C67.6659 24.056 68.4819 23.8 69.6019 23.8H75.2179V26.04H70.2419C69.6019 26.04 69.2819 26.36 69.2819 27V27.32C69.2819 27.96 69.6019 28.28 70.2419 28.28H73.1219C74.1672 28.28 74.9352 28.5253 75.4259 29.016C75.9165 29.5067 76.1619 30.2747 76.1619 31.32V32.12C76.1619 33.1653 75.9165 33.9333 75.4259 34.424C74.9352 34.9147 74.1672 35.16 73.1219 35.16C72.5779 35.16 72.0019 35.1493 71.3939 35.128L69.9219 35.064C68.8339 35.0107 67.7085 34.936 66.5459 34.84V32.68ZM81.3606 32.84C81.926 32.84 82.566 32.7333 83.2806 32.52V26.52H86.0806V35H83.6006L83.4406 34.2C82.9393 34.5307 82.422 34.776 81.8886 34.936C81.366 35.0853 80.9233 35.16 80.5606 35.16H79.8406C79.1153 35.16 78.534 34.9413 78.0966 34.504C77.6593 34.0667 77.4406 33.4853 77.4406 32.76V26.52H80.2406V32.28C80.2406 32.44 80.294 32.5733 80.4006 32.68C80.5073 32.7867 80.6406 32.84 80.8006 32.84H81.3606ZM92.395 28.68C91.8297 28.68 91.1897 28.7867 90.475 29V32.84H92.875C93.3017 32.84 93.515 32.6267 93.515 32.2V29.24C93.515 29.08 93.4617 28.9467 93.355 28.84C93.2483 28.7333 93.115 28.68 92.955 28.68H92.395ZM90.475 35V37.72H87.675V26.52H90.155L90.315 27.32C90.8163 26.9893 91.3283 26.7493 91.851 26.6C92.3843 26.44 92.8323 26.36 93.195 26.36H93.915C94.6403 26.36 95.2217 26.5787 95.659 27.016C96.0963 27.4533 96.315 28.0347 96.315 28.76V32.44C96.315 33.24 96.0857 33.8693 95.627 34.328C95.179 34.776 94.555 35 93.755 35H90.475ZM102.633 28.84C101.961 28.84 101.268 29 100.553 29.32V35H97.7531V26.52H100.233L100.393 27.56C101.31 26.76 102.27 26.36 103.273 26.36H103.993V28.84H102.633ZM107.832 32.92C108.397 32.92 109.037 32.8133 109.752 32.6V31.64H107.432C107.272 31.64 107.139 31.6933 107.032 31.8C106.925 31.9067 106.872 32.04 106.872 32.2V32.36C106.872 32.52 106.925 32.6533 107.032 32.76C107.139 32.8667 107.272 32.92 107.432 32.92H107.832ZM104.872 26.68C106.824 26.4667 108.584 26.36 110.152 26.36C110.877 26.36 111.459 26.5787 111.896 27.016C112.333 27.4533 112.552 28.0347 112.552 28.76V35H110.072L109.912 34.2C109.411 34.5307 108.893 34.776 108.36 34.936C107.837 35.0853 107.395 35.16 107.032 35.16H106.472C105.747 35.16 105.165 34.9413 104.728 34.504C104.291 34.0667 104.072 33.4853 104.072 32.76V32.04C104.072 31.3147 104.291 30.7333 104.728 30.296C105.165 29.8587 105.747 29.64 106.472 29.64H109.752V29C109.752 28.84 109.699 28.7067 109.592 28.6C109.485 28.4933 109.352 28.44 109.192 28.44C108.499 28.44 107.731 28.472 106.888 28.536C106.056 28.6 105.384 28.648 104.872 28.68V26.68Z" fill="white"/>
</g>
<path d="M28.72 35V35.2H28.92V35H28.72ZM25.84 35H25.64V35.2H25.84V35ZM25.84 30.44H26.04V30.24H25.84V30.44ZM21.84 30.44V30.24H21.64V30.44H21.84ZM21.84 35V35.2H22.04V35H21.84ZM18.96 35H18.76V35.2H18.96V35ZM18.96 23.8V23.6H18.76V23.8H18.96ZM21.84 23.8H22.04V23.6H21.84V23.8ZM21.84 28.2H21.64V28.4H21.84V28.2ZM25.84 28.2V28.4H26.04V28.2H25.84ZM25.84 23.8V23.6H25.64V23.8H25.84ZM28.72 23.8H28.92V23.6H28.72V23.8ZM28.72 34.8H25.84V35.2H28.72V34.8ZM26.04 35V30.44H25.64V35H26.04ZM25.84 30.24H21.84V30.64H25.84V30.24ZM21.64 30.44V35H22.04V30.44H21.64ZM21.84 34.8H18.96V35.2H21.84V34.8ZM19.16 35V23.8H18.76V35H19.16ZM18.96 24H21.84V23.6H18.96V24ZM21.64 23.8V28.2H22.04V23.8H21.64ZM21.84 28.4H25.84V28H21.84V28.4ZM26.04 28.2V23.8H25.64V28.2H26.04ZM25.84 24H28.72V23.6H25.84V24ZM28.52 23.8V35H28.92V23.8H28.52ZM39.6235 24.744L39.4809 24.8842L39.4833 24.8866L39.6235 24.744ZM39.6235 34.072L39.7649 34.2134L39.7649 34.2134L39.6235 34.072ZM30.6475 35H30.4475V35.2H30.6475V35ZM30.6475 23.8V23.6H30.4475V23.8H30.6475ZM33.5275 26.04V25.84H33.3275V26.04H33.5275ZM33.5275 32.76H33.3275V32.96H33.5275V32.76ZM36.8875 24C38.0593 24 38.9119 24.3054 39.4809 24.8842L39.7661 24.6038C39.0978 23.9239 38.1263 23.6 36.8875 23.6V24ZM39.4833 24.8866C40.0621 25.4556 40.3675 26.3082 40.3675 27.48H40.7675C40.7675 26.2412 40.4436 25.2697 39.7637 24.6014L39.4833 24.8866ZM40.3675 27.48V31.32H40.7675V27.48H40.3675ZM40.3675 31.32C40.3675 32.4916 40.0622 33.3505 39.4821 33.9306L39.7649 34.2134C40.4435 33.5348 40.7675 32.5591 40.7675 31.32H40.3675ZM39.4821 33.9306C38.9133 34.4994 38.0602 34.8 36.8875 34.8V35.2C38.1254 35.2 39.0964 34.8819 39.7649 34.2134L39.4821 33.9306ZM36.8875 34.8H30.6475V35.2H36.8875V34.8ZM30.8475 35V23.8H30.4475V35H30.8475ZM30.6475 24H36.8875V23.6H30.6475V24ZM37.8875 27.48C37.8875 26.9692 37.7597 26.5493 37.4689 26.2586C37.1782 25.9678 36.7583 25.84 36.2475 25.84V26.24C36.6967 26.24 36.9968 26.3522 37.1861 26.5414C37.3753 26.7307 37.4875 27.0308 37.4875 27.48H37.8875ZM36.2475 25.84H33.5275V26.24H36.2475V25.84ZM33.3275 26.04V32.76H33.7275V26.04H33.3275ZM33.5275 32.96H36.2475V32.56H33.5275V32.96ZM36.2475 32.96C36.7583 32.96 37.1782 32.8322 37.4689 32.5414C37.7597 32.2507 37.8875 31.8308 37.8875 31.32H37.4875C37.4875 31.7692 37.3753 32.0693 37.1861 32.2586C36.9968 32.4478 36.6967 32.56 36.2475 32.56V32.96ZM37.8875 31.32V27.48H37.4875V31.32H37.8875ZM45.0431 35V35.2H45.2431V35H45.0431ZM42.1631 35H41.9631V35.2H42.1631V35ZM42.1631 23.8V23.6H41.9631V23.8H42.1631ZM51.0431 23.8H51.2431V23.6H51.0431V23.8ZM51.0431 26.04V26.24H51.2431V26.04H51.0431ZM45.0431 26.04V25.84H44.8431V26.04H45.0431ZM45.0431 28.68H44.8431V28.88H45.0431V28.68ZM49.7631 28.68H49.9631V28.48H49.7631V28.68ZM49.7631 30.92V31.12H49.9631V30.92H49.7631ZM45.0431 30.92V30.72H44.8431V30.92H45.0431ZM45.0431 34.8H42.1631V35.2H45.0431V34.8ZM42.3631 35V23.8H41.9631V35H42.3631ZM42.1631 24H51.0431V23.6H42.1631V24ZM50.8431 23.8V26.04H51.2431V23.8H50.8431ZM51.0431 25.84H45.0431V26.24H51.0431V25.84ZM44.8431 26.04V28.68H45.2431V26.04H44.8431ZM45.0431 28.88H49.7631V28.48H45.0431V28.88ZM49.5631 28.68V30.92H49.9631V28.68H49.5631ZM49.7631 30.72H45.0431V31.12H49.7631V30.72ZM44.8431 30.92V35H45.2431V30.92H44.8431ZM60.8031 34.84L60.821 35.0392L61.0031 35.0229V34.84H60.8031ZM52.5791 34.424L52.7205 34.2826L52.7205 34.2826L52.5791 34.424ZM52.5951 24.568L52.7365 24.7094L52.7365 24.7094L52.5951 24.568ZM60.8031 23.8H61.0031V23.6H60.8031V23.8ZM60.8031 26.04V26.24H61.0031V26.04H60.8031ZM54.9311 32.712L54.7846 32.8481L54.7896 32.8535L54.795 32.8586L54.9311 32.712ZM56.2271 32.92V33.1202L56.2351 33.1198L56.2271 32.92ZM57.0591 32.888L57.0665 33.0879L57.0665 33.0879L57.0591 32.888ZM57.9231 32.856L57.916 32.6561L57.9157 32.6561L57.9231 32.856ZM59.0591 32.792L59.0455 32.5925L59.0452 32.5925L59.0591 32.792ZM60.8031 32.68H61.0031V32.4673L60.7908 32.4804L60.8031 32.68ZM60.7853 34.6408C58.4098 34.8538 56.4429 34.96 54.8831 34.96V35.36C56.4593 35.36 58.4391 35.2528 60.821 35.0392L60.7853 34.6408ZM54.8831 34.96C53.8643 34.96 53.1584 34.7204 52.7205 34.2826L52.4377 34.5654C52.9812 35.1089 53.8112 35.36 54.8831 35.36V34.96ZM52.7205 34.2826C52.2827 33.8447 52.0431 33.1388 52.0431 32.12H51.6431C51.6431 33.1919 51.8942 34.0219 52.4377 34.5654L52.7205 34.2826ZM52.0431 32.12V27H51.6431V32.12H52.0431ZM52.0431 27C52.0431 25.9033 52.2895 25.1565 52.7365 24.7094L52.4537 24.4266C51.8981 24.9822 51.6431 25.8567 51.6431 27H52.0431ZM52.7365 24.7094C53.1949 24.2511 53.9479 24 55.0431 24V23.6C53.8984 23.6 53.0194 23.8609 52.4537 24.4266L52.7365 24.7094ZM55.0431 24H60.8031V23.6H55.0431V24ZM60.6031 23.8V26.04H61.0031V23.8H60.6031ZM60.8031 25.84H55.6831V26.24H60.8031V25.84ZM55.6831 25.84C55.3323 25.84 55.0324 25.9278 54.8217 26.1386C54.611 26.3493 54.5231 26.6492 54.5231 27H54.9231C54.9231 26.7108 54.9953 26.5307 55.1045 26.4214C55.2138 26.3122 55.394 26.24 55.6831 26.24V25.84ZM54.5231 27V32.12H54.9231V27H54.5231ZM54.5231 32.12C54.5231 32.4049 54.6048 32.6545 54.7846 32.8481L55.0777 32.5759C54.9801 32.4708 54.9231 32.3257 54.9231 32.12H54.5231ZM54.795 32.8586C54.9852 33.0351 55.2221 33.12 55.4911 33.12V32.72C55.3122 32.72 55.1758 32.6662 55.0672 32.5654L54.795 32.8586ZM55.4911 33.12C55.4916 33.12 55.492 33.12 55.4924 33.12C55.4929 33.12 55.4933 33.12 55.4938 33.12C55.4942 33.12 55.4946 33.12 55.4951 33.12C55.4955 33.12 55.4959 33.12 55.4964 33.12C55.4968 33.12 55.4973 33.12 55.4977 33.12C55.4981 33.12 55.4986 33.12 55.499 33.12C55.4994 33.12 55.4999 33.12 55.5003 33.12C55.5008 33.12 55.5012 33.12 55.5016 33.12C55.5021 33.12 55.5025 33.12 55.503 33.12C55.5034 33.12 55.5038 33.12 55.5043 33.12C55.5047 33.12 55.5052 33.12 55.5056 33.12C55.506 33.12 55.5065 33.12 55.5069 33.12C55.5073 33.12 55.5078 33.12 55.5082 33.12C55.5087 33.12 55.5091 33.12 55.5095 33.12C55.51 33.12 55.5104 33.12 55.5109 33.12C55.5113 33.12 55.5117 33.12 55.5122 33.12C55.5126 33.12 55.5131 33.12 55.5135 33.12C55.5139 33.12 55.5144 33.12 55.5148 33.12C55.5153 33.12 55.5157 33.12 55.5162 33.12C55.5166 33.12 55.517 33.12 55.5175 33.12C55.5179 33.12 55.5184 33.12 55.5188 33.12C55.5192 33.12 55.5197 33.12 55.5201 33.12C55.5206 33.12 55.521 33.12 55.5214 33.12C55.5219 33.12 55.5223 33.12 55.5228 33.12C55.5232 33.12 55.5236 33.12 55.5241 33.12C55.5245 33.12 55.525 33.12 55.5254 33.12C55.5259 33.12 55.5263 33.12 55.5267 33.12C55.5272 33.12 55.5276 33.12 55.5281 33.12C55.5285 33.12 55.529 33.12 55.5294 33.12C55.5298 33.12 55.5303 33.12 55.5307 33.12C55.5312 33.12 55.5316 33.12 55.532 33.12C55.5325 33.12 55.5329 33.12 55.5334 33.12C55.5338 33.12 55.5343 33.12 55.5347 33.12C55.5351 33.12 55.5356 33.12 55.536 33.12C55.5365 33.12 55.5369 33.12 55.5374 33.12C55.5378 33.12 55.5382 33.12 55.5387 33.12C55.5391 33.12 55.5396 33.12 55.54 33.12C55.5405 33.12 55.5409 33.12 55.5414 33.12C55.5418 33.12 55.5422 33.12 55.5427 33.12C55.5431 33.12 55.5436 33.12 55.544 33.12C55.5445 33.12 55.5449 33.12 55.5453 33.12C55.5458 33.12 55.5462 33.12 55.5467 33.12C55.5471 33.12 55.5476 33.12 55.548 33.12C55.5485 33.12 55.5489 33.12 55.5493 33.12C55.5498 33.12 55.5502 33.12 55.5507 33.12C55.5511 33.12 55.5516 33.12 55.552 33.12C55.5525 33.12 55.5529 33.12 55.5534 33.12C55.5538 33.12 55.5542 33.12 55.5547 33.12C55.5551 33.12 55.5556 33.12 55.556 33.12C55.5565 33.12 55.5569 33.12 55.5574 33.12C55.5578 33.12 55.5583 33.12 55.5587 33.12C55.5591 33.12 55.5596 33.12 55.56 33.12C55.5605 33.12 55.5609 33.12 55.5614 33.12C55.5618 33.12 55.5623 33.12 55.5627 33.12C55.5632 33.12 55.5636 33.12 55.5641 33.12C55.5645 33.12 55.5649 33.12 55.5654 33.12C55.5658 33.12 55.5663 33.12 55.5667 33.12C55.5672 33.12 55.5676 33.12 55.5681 33.12C55.5685 33.12 55.569 33.12 55.5694 33.12C55.5699 33.12 55.5703 33.12 55.5708 33.12C55.5712 33.12 55.5716 33.12 55.5721 33.12C55.5725 33.12 55.573 33.12 55.5734 33.12C55.5739 33.12 55.5743 33.12 55.5748 33.12C55.5752 33.12 55.5757 33.12 55.5761 33.12C55.5766 33.12 55.577 33.12 55.5775 33.12C55.5779 33.12 55.5784 33.12 55.5788 33.12C55.5793 33.12 55.5797 33.12 55.5802 33.12C55.5806 33.12 55.5811 33.12 55.5815 33.12C55.582 33.12 55.5824 33.12 55.5828 33.12C55.5833 33.12 55.5837 33.12 55.5842 33.12C55.5846 33.12 55.5851 33.12 55.5855 33.12C55.586 33.12 55.5864 33.12 55.5869 33.12C55.5873 33.12 55.5878 33.12 55.5882 33.12C55.5887 33.12 55.5891 33.12 55.5896 33.12C55.59 33.12 55.5905 33.12 55.5909 33.12C55.5914 33.12 55.5918 33.12 55.5923 33.12C55.5927 33.12 55.5932 33.12 55.5936 33.12C55.5941 33.12 55.5945 33.12 55.595 33.12C55.5954 33.12 55.5959 33.12 55.5963 33.12C55.5968 33.12 55.5972 33.12 55.5977 33.12C55.5981 33.12 55.5986 33.12 55.599 33.12C55.5995 33.12 55.5999 33.12 55.6004 33.12C55.6008 33.12 55.6013 33.12 55.6017 33.12C55.6022 33.12 55.6026 33.12 55.6031 33.12C55.6035 33.12 55.604 33.12 55.6045 33.12C55.6049 33.12 55.6054 33.12 55.6058 33.12C55.6063 33.12 55.6067 33.12 55.6072 33.12C55.6076 33.12 55.6081 33.12 55.6085 33.12C55.609 33.12 55.6094 33.12 55.6099 33.12C55.6103 33.12 55.6108 33.12 55.6112 33.12C55.6117 33.12 55.6121 33.12 55.6126 33.12C55.613 33.12 55.6135 33.12 55.6139 33.12C55.6144 33.12 55.6148 33.12 55.6153 33.12C55.6158 33.12 55.6162 33.12 55.6167 33.12C55.6171 33.12 55.6176 33.12 55.618 33.12C55.6185 33.12 55.6189 33.12 55.6194 33.12C55.6198 33.12 55.6203 33.12 55.6207 33.12C55.6212 33.12 55.6216 33.12 55.6221 33.12C55.6225 33.12 55.623 33.12 55.6235 33.12C55.6239 33.12 55.6244 33.12 55.6248 33.12C55.6253 33.12 55.6257 33.12 55.6262 33.12C55.6266 33.12 55.6271 33.12 55.6275 33.12C55.628 33.12 55.6284 33.12 55.6289 33.12C55.6294 33.12 55.6298 33.12 55.6303 33.12C55.6307 33.12 55.6312 33.12 55.6316 33.12C55.6321 33.12 55.6325 33.12 55.633 33.12C55.6334 33.12 55.6339 33.12 55.6344 33.12C55.6348 33.12 55.6353 33.12 55.6357 33.12C55.6362 33.12 55.6366 33.12 55.6371 33.12C55.6375 33.12 55.638 33.12 55.6385 33.12C55.6389 33.12 55.6394 33.12 55.6398 33.12C55.6403 33.12 55.6407 33.12 55.6412 33.12C55.6416 33.12 55.6421 33.12 55.6426 33.12C55.643 33.12 55.6435 33.12 55.6439 33.12C55.6444 33.12 55.6448 33.12 55.6453 33.12C55.6457 33.12 55.6462 33.12 55.6467 33.12C55.6471 33.12 55.6476 33.12 55.648 33.12C55.6485 33.12 55.6489 33.12 55.6494 33.12C55.6499 33.12 55.6503 33.12 55.6508 33.12C55.6512 33.12 55.6517 33.12 55.6521 33.12C55.6526 33.12 55.6531 33.12 55.6535 33.12C55.654 33.12 55.6544 33.12 55.6549 33.12C55.6553 33.12 55.6558 33.12 55.6563 33.12C55.6567 33.12 55.6572 33.12 55.6576 33.12C55.6581 33.12 55.6585 33.12 55.659 33.12C55.6595 33.12 55.6599 33.12 55.6604 33.12C55.6608 33.12 55.6613 33.12 55.6618 33.12C55.6622 33.12 55.6627 33.12 55.6631 33.12C55.6636 33.12 55.664 33.12 55.6645 33.12C55.665 33.12 55.6654 33.12 55.6659 33.12C55.6663 33.12 55.6668 33.12 55.6673 33.12C55.6677 33.12 55.6682 33.12 55.6686 33.12C55.6691 33.12 55.6695 33.12 55.67 33.12C55.6705 33.12 55.6709 33.12 55.6714 33.12C55.6718 33.12 55.6723 33.12 55.6728 33.12C55.6732 33.12 55.6737 33.12 55.6741 33.12C55.6746 33.12 55.6751 33.12 55.6755 33.12C55.676 33.12 55.6764 33.12 55.6769 33.12C55.6774 33.12 55.6778 33.12 55.6783 33.12C55.6787 33.12 55.6792 33.12 55.6797 33.12C55.6801 33.12 55.6806 33.12 55.681 33.12C55.6815 33.12 55.682 33.12 55.6824 33.12C55.6829 33.12 55.6833 33.12 55.6838 33.12C55.6843 33.12 55.6847 33.12 55.6852 33.12C55.6856 33.12 55.6861 33.12 55.6866 33.12C55.687 33.12 55.6875 33.12 55.688 33.12C55.6884 33.12 55.6889 33.12 55.6893 33.12C55.6898 33.12 55.6903 33.12 55.6907 33.12C55.6912 33.12 55.6916 33.12 55.6921 33.12C55.6926 33.12 55.693 33.12 55.6935 33.12C55.694 33.12 55.6944 33.12 55.6949 33.12C55.6953 33.12 55.6958 33.12 55.6963 33.12C55.6967 33.12 55.6972 33.12 55.6977 33.12C55.6981 33.12 55.6986 33.12 55.699 33.12C55.6995 33.12 55.7 33.12 55.7004 33.12C55.7009 33.12 55.7014 33.12 55.7018 33.12C55.7023 33.12 55.7027 33.12 55.7032 33.12C55.7037 33.12 55.7041 33.12 55.7046 33.12C55.7051 33.12 55.7055 33.12 55.706 33.12C55.7064 33.12 55.7069 33.12 55.7074 33.12C55.7078 33.12 55.7083 33.12 55.7088 33.12C55.7092 33.12 55.7097 33.12 55.7102 33.12C55.7106 33.12 55.7111 33.12 55.7115 33.12C55.712 33.12 55.7125 33.12 55.7129 33.12C55.7134 33.12 55.7139 33.12 55.7143 33.12C55.7148 33.12 55.7153 33.12 55.7157 33.12C55.7162 33.12 55.7167 33.12 55.7171 33.12C55.7176 33.12 55.7181 33.12 55.7185 33.12C55.719 33.12 55.7194 33.12 55.7199 33.12C55.7204 33.12 55.7208 33.12 55.7213 33.12C55.7218 33.12 55.7222 33.12 55.7227 33.12C55.7232 33.12 55.7236 33.12 55.7241 33.12C55.7246 33.12 55.725 33.12 55.7255 33.12C55.726 33.12 55.7264 33.12 55.7269 33.12C55.7274 33.12 55.7278 33.12 55.7283 33.12C55.7288 33.12 55.7292 33.12 55.7297 33.12C55.7302 33.12 55.7306 33.12 55.7311 33.12C55.7316 33.12 55.732 33.12 55.7325 33.12C55.733 33.12 55.7334 33.12 55.7339 33.12C55.7344 33.12 55.7348 33.12 55.7353 33.12C55.7358 33.12 55.7362 33.12 55.7367 33.12C55.7372 33.12 55.7376 33.12 55.7381 33.12C55.7386 33.12 55.739 33.12 55.7395 33.12C55.74 33.12 55.7404 33.12 55.7409 33.12C55.7414 33.12 55.7418 33.12 55.7423 33.12C55.7428 33.12 55.7432 33.12 55.7437 33.12C55.7442 33.12 55.7446 33.12 55.7451 33.12C55.7456 33.12 55.746 33.12 55.7465 33.12C55.747 33.12 55.7474 33.12 55.7479 33.12C55.7484 33.12 55.7488 33.12 55.7493 33.12C55.7498 33.12 55.7503 33.12 55.7507 33.12C55.7512 33.12 55.7517 33.12 55.7521 33.12C55.7526 33.12 55.7531 33.12 55.7535 33.12C55.754 33.12 55.7545 33.12 55.7549 33.12C55.7554 33.12 55.7559 33.12 55.7563 33.12C55.7568 33.12 55.7573 33.12 55.7578 33.12C55.7582 33.12 55.7587 33.12 55.7592 33.12C55.7596 33.12 55.7601 33.12 55.7606 33.12C55.761 33.12 55.7615 33.12 55.762 33.12C55.7625 33.12 55.7629 33.12 55.7634 33.12C55.7639 33.12 55.7643 33.12 55.7648 33.12C55.7653 33.12 55.7657 33.12 55.7662 33.12C55.7667 33.12 55.7672 33.12 55.7676 33.12C55.7681 33.12 55.7686 33.12 55.769 33.12C55.7695 33.12 55.77 33.12 55.7704 33.12C55.7709 33.12 55.7714 33.12 55.7719 33.12C55.7723 33.12 55.7728 33.12 55.7733 33.12C55.7737 33.12 55.7742 33.12 55.7747 33.12C55.7752 33.12 55.7756 33.12 55.7761 33.12C55.7766 33.12 55.777 33.12 55.7775 33.12C55.778 33.12 55.7785 33.12 55.7789 33.12C55.7794 33.12 55.7799 33.12 55.7803 33.12C55.7808 33.12 55.7813 33.12 55.7818 33.12C55.7822 33.12 55.7827 33.12 55.7832 33.12C55.7837 33.12 55.7841 33.12 55.7846 33.12C55.7851 33.12 55.7855 33.12 55.786 33.12C55.7865 33.12 55.787 33.12 55.7874 33.12C55.7879 33.12 55.7884 33.12 55.7889 33.12C55.7893 33.12 55.7898 33.12 55.7903 33.12C55.7907 33.12 55.7912 33.12 55.7917 33.12C55.7922 33.12 55.7926 33.12 55.7931 33.12C55.7936 33.12 55.7941 33.12 55.7945 33.12C55.795 33.12 55.7955 33.12 55.796 33.12C55.7964 33.12 55.7969 33.12 55.7974 33.12C55.7978 33.12 55.7983 33.12 55.7988 33.12C55.7993 33.12 55.7997 33.12 55.8002 33.12C55.8007 33.12 55.8012 33.12 55.8016 33.12C55.8021 33.12 55.8026 33.12 55.8031 33.12C55.8035 33.12 55.804 33.12 55.8045 33.12C55.805 33.12 55.8054 33.12 55.8059 33.12C55.8064 33.12 55.8069 33.12 55.8073 33.12C55.8078 33.12 55.8083 33.12 55.8088 33.12C55.8092 33.12 55.8097 33.12 55.8102 33.12C55.8107 33.12 55.8111 33.12 55.8116 33.12C55.8121 33.12 55.8126 33.12 55.813 33.12C55.8135 33.12 55.814 33.12 55.8145 33.12C55.8149 33.12 55.8154 33.12 55.8159 33.12C55.8164 33.12 55.8169 33.12 55.8173 33.12C55.8178 33.12 55.8183 33.12 55.8188 33.12C55.8192 33.12 55.8197 33.12 55.8202 33.12C55.8207 33.12 55.8211 33.12 55.8216 33.12C55.8221 33.12 55.8226 33.12 55.823 33.12C55.8235 33.12 55.824 33.12 55.8245 33.12C55.825 33.12 55.8254 33.12 55.8259 33.12C55.8264 33.12 55.8269 33.12 55.8273 33.12C55.8278 33.12 55.8283 33.12 55.8288 33.12C55.8293 33.12 55.8297 33.12 55.8302 33.12C55.8307 33.12 55.8312 33.12 55.8316 33.12C55.8321 33.12 55.8326 33.12 55.8331 33.12C55.8336 33.12 55.834 33.12 55.8345 33.12C55.835 33.12 55.8355 33.12 55.8359 33.12C55.8364 33.12 55.8369 33.12 55.8374 33.12C55.8379 33.12 55.8383 33.12 55.8388 33.12C55.8393 33.12 55.8398 33.12 55.8403 33.12C55.8407 33.12 55.8412 33.12 55.8417 33.12C55.8422 33.12 55.8426 33.12 55.8431 33.12C55.8436 33.12 55.8441 33.12 55.8446 33.12C55.845 33.12 55.8455 33.12 55.846 33.12C55.8465 33.12 55.847 33.12 55.8474 33.12C55.8479 33.12 55.8484 33.12 55.8489 33.12C55.8494 33.12 55.8498 33.12 55.8503 33.12C55.8508 33.12 55.8513 33.12 55.8518 33.12C55.8522 33.12 55.8527 33.12 55.8532 33.12C55.8537 33.12 55.8542 33.12 55.8546 33.12C55.8551 33.12 55.8556 33.12 55.8561 33.12C55.8566 33.12 55.857 33.12 55.8575 33.12C55.858 33.12 55.8585 33.12 55.859 33.12C55.8594 33.12 55.8599 33.12 55.8604 33.12C55.8609 33.12 55.8614 33.12 55.8619 33.12C55.8623 33.12 55.8628 33.12 55.8633 33.12C55.8638 33.12 55.8643 33.12 55.8647 33.12C55.8652 33.12 55.8657 33.12 55.8662 33.12C55.8667 33.12 55.8672 33.12 55.8676 33.12C55.8681 33.12 55.8686 33.12 55.8691 33.12C55.8696 33.12 55.87 33.12 55.8705 33.12C55.871 33.12 55.8715 33.12 55.872 33.12C55.8725 33.12 55.8729 33.12 55.8734 33.12C55.8739 33.12 55.8744 33.12 55.8749 33.12C55.8754 33.12 55.8758 33.12 55.8763 33.12C55.8768 33.12 55.8773 33.12 55.8778 33.12C55.8782 33.12 55.8787 33.12 55.8792 33.12C55.8797 33.12 55.8802 33.12 55.8807 33.12C55.8811 33.12 55.8816 33.12 55.8821 33.12C55.8826 33.12 55.8831 33.12 55.8836 33.12C55.8841 33.12 55.8845 33.12 55.885 33.12C55.8855 33.12 55.886 33.12 55.8865 33.12C55.887 33.12 55.8874 33.12 55.8879 33.12C55.8884 33.12 55.8889 33.12 55.8894 33.12C55.8899 33.12 55.8903 33.12 55.8908 33.12C55.8913 33.12 55.8918 33.12 55.8923 33.12C55.8928 33.12 55.8933 33.12 55.8937 33.12C55.8942 33.12 55.8947 33.12 55.8952 33.12C55.8957 33.12 55.8962 33.12 55.8966 33.12C55.8971 33.12 55.8976 33.12 55.8981 33.12C55.8986 33.12 55.8991 33.12 55.8996 33.12C55.9 33.12 55.9005 33.12 55.901 33.12C55.9015 33.12 55.902 33.12 55.9025 33.12C55.903 33.12 55.9034 33.12 55.9039 33.12C55.9044 33.12 55.9049 33.12 55.9054 33.12C55.9059 33.12 55.9064 33.12 55.9068 33.12C55.9073 33.12 55.9078 33.12 55.9083 33.12C55.9088 33.12 55.9093 33.12 55.9098 33.12C55.9103 33.12 55.9107 33.12 55.9112 33.12C55.9117 33.12 55.9122 33.12 55.9127 33.12C55.9132 33.12 55.9137 33.12 55.9141 33.12C55.9146 33.12 55.9151 33.12 55.9156 33.12C55.9161 33.12 55.9166 33.12 55.9171 33.12C55.9176 33.12 55.918 33.12 55.9185 33.12C55.919 33.12 55.9195 33.12 55.92 33.12C55.9205 33.12 55.921 33.12 55.9215 33.12C55.9219 33.12 55.9224 33.12 55.9229 33.12C55.9234 33.12 55.9239 33.12 55.9244 33.12C55.9249 33.12 55.9254 33.12 55.9259 33.12C55.9263 33.12 55.9268 33.12 55.9273 33.12C55.9278 33.12 55.9283 33.12 55.9288 33.12C55.9293 33.12 55.9298 33.12 55.9303 33.12C55.9307 33.12 55.9312 33.12 55.9317 33.12C55.9322 33.12 55.9327 33.12 55.9332 33.12C55.9337 33.12 55.9342 33.12 55.9347 33.12C55.9351 33.12 55.9356 33.12 55.9361 33.12C55.9366 33.12 55.9371 33.12 55.9376 33.12C55.9381 33.12 55.9386 33.12 55.9391 33.12C55.9396 33.12 55.94 33.12 55.9405 33.12C55.941 33.12 55.9415 33.12 55.942 33.12C55.9425 33.12 55.943 33.12 55.9435 33.12C55.944 33.12 55.9445 33.12 55.9449 33.12C55.9454 33.12 55.9459 33.12 55.9464 33.12C55.9469 33.12 55.9474 33.12 55.9479 33.12C55.9484 33.12 55.9489 33.12 55.9494 33.12C55.9499 33.12 55.9503 33.12 55.9508 33.12C55.9513 33.12 55.9518 33.12 55.9523 33.12C55.9528 33.12 55.9533 33.12 55.9538 33.12C55.9543 33.12 55.9548 33.12 55.9553 33.12C55.9558 33.12 55.9562 33.12 55.9567 33.12C55.9572 33.12 55.9577 33.12 55.9582 33.12C55.9587 33.12 55.9592 33.12 55.9597 33.12C55.9602 33.12 55.9607 33.12 55.9612 33.12C55.9617 33.12 55.9621 33.12 55.9626 33.12C55.9631 33.12 55.9636 33.12 55.9641 33.12C55.9646 33.12 55.9651 33.12 55.9656 33.12C55.9661 33.12 55.9666 33.12 55.9671 33.12C55.9676 33.12 55.9681 33.12 55.9686 33.12C55.969 33.12 55.9695 33.12 55.97 33.12C55.9705 33.12 55.971 33.12 55.9715 33.12C55.972 33.12 55.9725 33.12 55.973 33.12C55.9735 33.12 55.974 33.12 55.9745 33.12C55.975 33.12 55.9755 33.12 55.976 33.12C55.9765 33.12 55.9769 33.12 55.9774 33.12C55.9779 33.12 55.9784 33.12 55.9789 33.12C55.9794 33.12 55.9799 33.12 55.9804 33.12C55.9809 33.12 55.9814 33.12 55.9819 33.12C55.9824 33.12 55.9829 33.12 55.9834 33.12C55.9839 33.12 55.9844 33.12 55.9849 33.12C55.9854 33.12 55.9858 33.12 55.9863 33.12C55.9868 33.12 55.9873 33.12 55.9878 33.12C55.9883 33.12 55.9888 33.12 55.9893 33.12C55.9898 33.12 55.9903 33.12 55.9908 33.12C55.9913 33.12 55.9918 33.12 55.9923 33.12C55.9928 33.12 55.9933 33.12 55.9938 33.12C55.9943 33.12 55.9948 33.12 55.9953 33.12C55.9958 33.12 55.9963 33.12 55.9968 33.12C55.9973 33.12 55.9977 33.12 55.9982 33.12C55.9987 33.12 55.9992 33.12 55.9997 33.12C56.0002 33.12 56.0007 33.12 56.0012 33.12C56.0017 33.12 56.0022 33.12 56.0027 33.12C56.0032 33.12 56.0037 33.12 56.0042 33.12C56.0047 33.12 56.0052 33.12 56.0057 33.12C56.0062 33.12 56.0067 33.12 56.0072 33.12C56.0077 33.12 56.0082 33.12 56.0087 33.12C56.0092 33.12 56.0097 33.12 56.0102 33.12C56.0107 33.12 56.0112 33.12 56.0117 33.12C56.0122 33.12 56.0127 33.12 56.0132 33.12C56.0137 33.12 56.0142 33.12 56.0147 33.12C56.0152 33.12 56.0157 33.12 56.0161 33.12C56.0166 33.12 56.0171 33.12 56.0176 33.12C56.0181 33.12 56.0186 33.12 56.0191 33.12C56.0196 33.12 56.0201 33.12 56.0206 33.12C56.0211 33.12 56.0216 33.12 56.0221 33.12C56.0226 33.12 56.0231 33.12 56.0236 33.12C56.0241 33.12 56.0246 33.12 56.0251 33.12C56.0256 33.12 56.0261 33.12 56.0266 33.12C56.0271 33.12 56.0276 33.12 56.0281 33.12C56.0286 33.12 56.0291 33.12 56.0296 33.12C56.0301 33.12 56.0306 33.12 56.0311 33.12C56.0316 33.12 56.0321 33.12 56.0326 33.12C56.0331 33.12 56.0336 33.12 56.0341 33.12C56.0346 33.12 56.0351 33.12 56.0356 33.12C56.0361 33.12 56.0366 33.12 56.0371 33.12C56.0376 33.12 56.0381 33.12 56.0386 33.12C56.0391 33.12 56.0396 33.12 56.0401 33.12C56.0406 33.12 56.0411 33.12 56.0416 33.12C56.0421 33.12 56.0426 33.12 56.0431 33.12C56.0436 33.12 56.0441 33.12 56.0446 33.12C56.0451 33.12 56.0456 33.12 56.0461 33.12C56.0467 33.12 56.0472 33.12 56.0477 33.12C56.0482 33.12 56.0487 33.12 56.0492 33.12C56.0497 33.12 56.0502 33.12 56.0507 33.12C56.0512 33.12 56.0517 33.12 56.0522 33.12C56.0527 33.12 56.0532 33.12 56.0537 33.12C56.0542 33.12 56.0547 33.12 56.0552 33.12C56.0557 33.12 56.0562 33.12 56.0567 33.12C56.0572 33.12 56.0577 33.12 56.0582 33.12C56.0587 33.12 56.0592 33.12 56.0597 33.12C56.0602 33.12 56.0607 33.12 56.0612 33.12C56.0617 33.12 56.0622 33.12 56.0627 33.12C56.0632 33.12 56.0637 33.12 56.0642 33.12C56.0647 33.12 56.0653 33.12 56.0658 33.12C56.0663 33.12 56.0668 33.12 56.0673 33.12C56.0678 33.12 56.0683 33.12 56.0688 33.12C56.0693 33.12 56.0698 33.12 56.0703 33.12C56.0708 33.12 56.0713 33.12 56.0718 33.12C56.0723 33.12 56.0728 33.12 56.0733 33.12C56.0738 33.12 56.0743 33.12 56.0748 33.12C56.0753 33.12 56.0758 33.12 56.0763 33.12C56.0768 33.12 56.0774 33.12 56.0779 33.12C56.0784 33.12 56.0789 33.12 56.0794 33.12C56.0799 33.12 56.0804 33.12 56.0809 33.12C56.0814 33.12 56.0819 33.12 56.0824 33.12C56.0829 33.12 56.0834 33.12 56.0839 33.12C56.0844 33.12 56.0849 33.12 56.0854 33.12C56.0859 33.12 56.0865 33.12 56.087 33.12C56.0875 33.12 56.088 33.12 56.0885 33.12C56.089 33.12 56.0895 33.12 56.09 33.12C56.0905 33.12 56.091 33.12 56.0915 33.12C56.092 33.12 56.0925 33.12 56.093 33.12C56.0935 33.12 56.094 33.12 56.0946 33.12C56.0951 33.12 56.0956 33.12 56.0961 33.12C56.0966 33.12 56.0971 33.12 56.0976 33.12C56.0981 33.12 56.0986 33.12 56.0991 33.12C56.0996 33.12 56.1001 33.12 56.1006 33.12C56.1011 33.12 56.1017 33.12 56.1022 33.12C56.1027 33.12 56.1032 33.12 56.1037 33.12C56.1042 33.12 56.1047 33.12 56.1052 33.12C56.1057 33.12 56.1062 33.12 56.1067 33.12C56.1072 33.12 56.1078 33.12 56.1083 33.12C56.1088 33.12 56.1093 33.12 56.1098 33.12C56.1103 33.12 56.1108 33.12 56.1113 33.12C56.1118 33.12 56.1123 33.12 56.1128 33.12C56.1133 33.12 56.1139 33.12 56.1144 33.12C56.1149 33.12 56.1154 33.12 56.1159 33.12C56.1164 33.12 56.1169 33.12 56.1174 33.12C56.1179 33.12 56.1184 33.12 56.1189 33.12C56.1195 33.12 56.12 33.12 56.1205 33.12C56.121 33.12 56.1215 33.12 56.122 33.12C56.1225 33.12 56.123 33.12 56.1235 33.12C56.124 33.12 56.1246 33.12 56.1251 33.12C56.1256 33.12 56.1261 33.12 56.1266 33.12C56.1271 33.12 56.1276 33.12 56.1281 33.12C56.1286 33.12 56.1291 33.12 56.1297 33.12C56.1302 33.12 56.1307 33.12 56.1312 33.12C56.1317 33.12 56.1322 33.12 56.1327 33.12C56.1332 33.12 56.1337 33.12 56.1343 33.12C56.1348 33.12 56.1353 33.12 56.1358 33.12C56.1363 33.12 56.1368 33.12 56.1373 33.12C56.1378 33.12 56.1383 33.12 56.1389 33.12C56.1394 33.12 56.1399 33.12 56.1404 33.12C56.1409 33.12 56.1414 33.12 56.1419 33.12C56.1424 33.12 56.143 33.12 56.1435 33.12C56.144 33.12 56.1445 33.12 56.145 33.12C56.1455 33.12 56.146 33.12 56.1465 33.12C56.147 33.12 56.1476 33.12 56.1481 33.12C56.1486 33.12 56.1491 33.12 56.1496 33.12C56.1501 33.12 56.1506 33.12 56.1511 33.12C56.1517 33.12 56.1522 33.12 56.1527 33.12C56.1532 33.12 56.1537 33.12 56.1542 33.12C56.1547 33.12 56.1553 33.12 56.1558 33.12C56.1563 33.12 56.1568 33.12 56.1573 33.12C56.1578 33.12 56.1583 33.12 56.1588 33.12C56.1594 33.12 56.1599 33.12 56.1604 33.12C56.1609 33.12 56.1614 33.12 56.1619 33.12C56.1624 33.12 56.163 33.12 56.1635 33.12C56.164 33.12 56.1645 33.12 56.165 33.12C56.1655 33.12 56.166 33.12 56.1666 33.12C56.1671 33.12 56.1676 33.12 56.1681 33.12C56.1686 33.12 56.1691 33.12 56.1696 33.12C56.1702 33.12 56.1707 33.12 56.1712 33.12C56.1717 33.12 56.1722 33.12 56.1727 33.12C56.1733 33.12 56.1738 33.12 56.1743 33.12C56.1748 33.12 56.1753 33.12 56.1758 33.12C56.1763 33.12 56.1769 33.12 56.1774 33.12C56.1779 33.12 56.1784 33.12 56.1789 33.12C56.1794 33.12 56.18 33.12 56.1805 33.12C56.181 33.12 56.1815 33.12 56.182 33.12C56.1825 33.12 56.1831 33.12 56.1836 33.12C56.1841 33.12 56.1846 33.12 56.1851 33.12C56.1856 33.12 56.1861 33.12 56.1867 33.12C56.1872 33.12 56.1877 33.12 56.1882 33.12C56.1887 33.12 56.1892 33.12 56.1898 33.12C56.1903 33.12 56.1908 33.12 56.1913 33.12C56.1918 33.12 56.1924 33.12 56.1929 33.12C56.1934 33.12 56.1939 33.12 56.1944 33.12C56.1949 33.12 56.1955 33.12 56.196 33.12C56.1965 33.12 56.197 33.12 56.1975 33.12C56.198 33.12 56.1986 33.12 56.1991 33.12C56.1996 33.12 56.2001 33.12 56.2006 33.12C56.2012 33.12 56.2017 33.12 56.2022 33.12C56.2027 33.12 56.2032 33.12 56.2037 33.12C56.2043 33.12 56.2048 33.12 56.2053 33.12C56.2058 33.12 56.2063 33.12 56.2069 33.12C56.2074 33.12 56.2079 33.12 56.2084 33.12C56.2089 33.12 56.2094 33.12 56.21 33.12C56.2105 33.12 56.211 33.12 56.2115 33.12C56.212 33.12 56.2126 33.12 56.2131 33.12C56.2136 33.12 56.2141 33.12 56.2146 33.12C56.2152 33.12 56.2157 33.12 56.2162 33.12C56.2167 33.12 56.2172 33.12 56.2178 33.12C56.2183 33.12 56.2188 33.12 56.2193 33.12C56.2198 33.12 56.2204 33.12 56.2209 33.12C56.2214 33.12 56.2219 33.12 56.2224 33.12C56.223 33.12 56.2235 33.12 56.224 33.12C56.2245 33.12 56.225 33.12 56.2256 33.12C56.2261 33.12 56.2266 33.12 56.2271 33.12V32.72C56.2266 32.72 56.2261 32.72 56.2256 32.72C56.225 32.72 56.2245 32.72 56.224 32.72C56.2235 32.72 56.223 32.72 56.2224 32.72C56.2219 32.72 56.2214 32.72 56.2209 32.72C56.2204 32.72 56.2198 32.72 56.2193 32.72C56.2188 32.72 56.2183 32.72 56.2178 32.72C56.2172 32.72 56.2167 32.72 56.2162 32.72C56.2157 32.72 56.2152 32.72 56.2146 32.72C56.2141 32.72 56.2136 32.72 56.2131 32.72C56.2126 32.72 56.212 32.72 56.2115 32.72C56.211 32.72 56.2105 32.72 56.21 32.72C56.2094 32.72 56.2089 32.72 56.2084 32.72C56.2079 32.72 56.2074 32.72 56.2069 32.72C56.2063 32.72 56.2058 32.72 56.2053 32.72C56.2048 32.72 56.2043 32.72 56.2037 32.72C56.2032 32.72 56.2027 32.72 56.2022 32.72C56.2017 32.72 56.2012 32.72 56.2006 32.72C56.2001 32.72 56.1996 32.72 56.1991 32.72C56.1986 32.72 56.198 32.72 56.1975 32.72C56.197 32.72 56.1965 32.72 56.196 32.72C56.1955 32.72 56.1949 32.72 56.1944 32.72C56.1939 32.72 56.1934 32.72 56.1929 32.72C56.1924 32.72 56.1918 32.72 56.1913 32.72C56.1908 32.72 56.1903 32.72 56.1898 32.72C56.1892 32.72 56.1887 32.72 56.1882 32.72C56.1877 32.72 56.1872 32.72 56.1867 32.72C56.1861 32.72 56.1856 32.72 56.1851 32.72C56.1846 32.72 56.1841 32.72 56.1836 32.72C56.1831 32.72 56.1825 32.72 56.182 32.72C56.1815 32.72 56.181 32.72 56.1805 32.72C56.18 32.72 56.1794 32.72 56.1789 32.72C56.1784 32.72 56.1779 32.72 56.1774 32.72C56.1769 32.72 56.1763 32.72 56.1758 32.72C56.1753 32.72 56.1748 32.72 56.1743 32.72C56.1738 32.72 56.1733 32.72 56.1727 32.72C56.1722 32.72 56.1717 32.72 56.1712 32.72C56.1707 32.72 56.1702 32.72 56.1696 32.72C56.1691 32.72 56.1686 32.72 56.1681 32.72C56.1676 32.72 56.1671 32.72 56.1666 32.72C56.166 32.72 56.1655 32.72 56.165 32.72C56.1645 32.72 56.164 32.72 56.1635 32.72C56.163 32.72 56.1624 32.72 56.1619 32.72C56.1614 32.72 56.1609 32.72 56.1604 32.72C56.1599 32.72 56.1594 32.72 56.1588 32.72C56.1583 32.72 56.1578 32.72 56.1573 32.72C56.1568 32.72 56.1563 32.72 56.1558 32.72C56.1553 32.72 56.1547 32.72 56.1542 32.72C56.1537 32.72 56.1532 32.72 56.1527 32.72C56.1522 32.72 56.1517 32.72 56.1511 32.72C56.1506 32.72 56.1501 32.72 56.1496 32.72C56.1491 32.72 56.1486 32.72 56.1481 32.72C56.1476 32.72 56.147 32.72 56.1465 32.72C56.146 32.72 56.1455 32.72 56.145 32.72C56.1445 32.72 56.144 32.72 56.1435 32.72C56.143 32.72 56.1424 32.72 56.1419 32.72C56.1414 32.72 56.1409 32.72 56.1404 32.72C56.1399 32.72 56.1394 32.72 56.1389 32.72C56.1383 32.72 56.1378 32.72 56.1373 32.72C56.1368 32.72 56.1363 32.72 56.1358 32.72C56.1353 32.72 56.1348 32.72 56.1343 32.72C56.1337 32.72 56.1332 32.72 56.1327 32.72C56.1322 32.72 56.1317 32.72 56.1312 32.72C56.1307 32.72 56.1302 32.72 56.1297 32.72C56.1291 32.72 56.1286 32.72 56.1281 32.72C56.1276 32.72 56.1271 32.72 56.1266 32.72C56.1261 32.72 56.1256 32.72 56.1251 32.72C56.1246 32.72 56.124 32.72 56.1235 32.72C56.123 32.72 56.1225 32.72 56.122 32.72C56.1215 32.72 56.121 32.72 56.1205 32.72C56.12 32.72 56.1195 32.72 56.1189 32.72C56.1184 32.72 56.1179 32.72 56.1174 32.72C56.1169 32.72 56.1164 32.72 56.1159 32.72C56.1154 32.72 56.1149 32.72 56.1144 32.72C56.1139 32.72 56.1133 32.72 56.1128 32.72C56.1123 32.72 56.1118 32.72 56.1113 32.72C56.1108 32.72 56.1103 32.72 56.1098 32.72C56.1093 32.72 56.1088 32.72 56.1083 32.72C56.1078 32.72 56.1072 32.72 56.1067 32.72C56.1062 32.72 56.1057 32.72 56.1052 32.72C56.1047 32.72 56.1042 32.72 56.1037 32.72C56.1032 32.72 56.1027 32.72 56.1022 32.72C56.1017 32.72 56.1011 32.72 56.1006 32.72C56.1001 32.72 56.0996 32.72 56.0991 32.72C56.0986 32.72 56.0981 32.72 56.0976 32.72C56.0971 32.72 56.0966 32.72 56.0961 32.72C56.0956 32.72 56.0951 32.72 56.0946 32.72C56.094 32.72 56.0935 32.72 56.093 32.72C56.0925 32.72 56.092 32.72 56.0915 32.72C56.091 32.72 56.0905 32.72 56.09 32.72C56.0895 32.72 56.089 32.72 56.0885 32.72C56.088 32.72 56.0875 32.72 56.087 32.72C56.0865 32.72 56.0859 32.72 56.0854 32.72C56.0849 32.72 56.0844 32.72 56.0839 32.72C56.0834 32.72 56.0829 32.72 56.0824 32.72C56.0819 32.72 56.0814 32.72 56.0809 32.72C56.0804 32.72 56.0799 32.72 56.0794 32.72C56.0789 32.72 56.0784 32.72 56.0779 32.72C56.0774 32.72 56.0768 32.72 56.0763 32.72C56.0758 32.72 56.0753 32.72 56.0748 32.72C56.0743 32.72 56.0738 32.72 56.0733 32.72C56.0728 32.72 56.0723 32.72 56.0718 32.72C56.0713 32.72 56.0708 32.72 56.0703 32.72C56.0698 32.72 56.0693 32.72 56.0688 32.72C56.0683 32.72 56.0678 32.72 56.0673 32.72C56.0668 32.72 56.0663 32.72 56.0658 32.72C56.0653 32.72 56.0647 32.72 56.0642 32.72C56.0637 32.72 56.0632 32.72 56.0627 32.72C56.0622 32.72 56.0617 32.72 56.0612 32.72C56.0607 32.72 56.0602 32.72 56.0597 32.72C56.0592 32.72 56.0587 32.72 56.0582 32.72C56.0577 32.72 56.0572 32.72 56.0567 32.72C56.0562 32.72 56.0557 32.72 56.0552 32.72C56.0547 32.72 56.0542 32.72 56.0537 32.72C56.0532 32.72 56.0527 32.72 56.0522 32.72C56.0517 32.72 56.0512 32.72 56.0507 32.72C56.0502 32.72 56.0497 32.72 56.0492 32.72C56.0487 32.72 56.0482 32.72 56.0477 32.72C56.0472 32.72 56.0467 32.72 56.0461 32.72C56.0456 32.72 56.0451 32.72 56.0446 32.72C56.0441 32.72 56.0436 32.72 56.0431 32.72C56.0426 32.72 56.0421 32.72 56.0416 32.72C56.0411 32.72 56.0406 32.72 56.0401 32.72C56.0396 32.72 56.0391 32.72 56.0386 32.72C56.0381 32.72 56.0376 32.72 56.0371 32.72C56.0366 32.72 56.0361 32.72 56.0356 32.72C56.0351 32.72 56.0346 32.72 56.0341 32.72C56.0336 32.72 56.0331 32.72 56.0326 32.72C56.0321 32.72 56.0316 32.72 56.0311 32.72C56.0306 32.72 56.0301 32.72 56.0296 32.72C56.0291 32.72 56.0286 32.72 56.0281 32.72C56.0276 32.72 56.0271 32.72 56.0266 32.72C56.0261 32.72 56.0256 32.72 56.0251 32.72C56.0246 32.72 56.0241 32.72 56.0236 32.72C56.0231 32.72 56.0226 32.72 56.0221 32.72C56.0216 32.72 56.0211 32.72 56.0206 32.72C56.0201 32.72 56.0196 32.72 56.0191 32.72C56.0186 32.72 56.0181 32.72 56.0176 32.72C56.0171 32.72 56.0166 32.72 56.0161 32.72C56.0157 32.72 56.0152 32.72 56.0147 32.72C56.0142 32.72 56.0137 32.72 56.0132 32.72C56.0127 32.72 56.0122 32.72 56.0117 32.72C56.0112 32.72 56.0107 32.72 56.0102 32.72C56.0097 32.72 56.0092 32.72 56.0087 32.72C56.0082 32.72 56.0077 32.72 56.0072 32.72C56.0067 32.72 56.0062 32.72 56.0057 32.72C56.0052 32.72 56.0047 32.72 56.0042 32.72C56.0037 32.72 56.0032 32.72 56.0027 32.72C56.0022 32.72 56.0017 32.72 56.0012 32.72C56.0007 32.72 56.0002 32.72 55.9997 32.72C55.9992 32.72 55.9987 32.72 55.9982 32.72C55.9977 32.72 55.9973 32.72 55.9968 32.72C55.9963 32.72 55.9958 32.72 55.9953 32.72C55.9948 32.72 55.9943 32.72 55.9938 32.72C55.9933 32.72 55.9928 32.72 55.9923 32.72C55.9918 32.72 55.9913 32.72 55.9908 32.72C55.9903 32.72 55.9898 32.72 55.9893 32.72C55.9888 32.72 55.9883 32.72 55.9878 32.72C55.9873 32.72 55.9868 32.72 55.9863 32.72C55.9858 32.72 55.9854 32.72 55.9849 32.72C55.9844 32.72 55.9839 32.72 55.9834 32.72C55.9829 32.72 55.9824 32.72 55.9819 32.72C55.9814 32.72 55.9809 32.72 55.9804 32.72C55.9799 32.72 55.9794 32.72 55.9789 32.72C55.9784 32.72 55.9779 32.72 55.9774 32.72C55.9769 32.72 55.9765 32.72 55.976 32.72C55.9755 32.72 55.975 32.72 55.9745 32.72C55.974 32.72 55.9735 32.72 55.973 32.72C55.9725 32.72 55.972 32.72 55.9715 32.72C55.971 32.72 55.9705 32.72 55.97 32.72C55.9695 32.72 55.969 32.72 55.9686 32.72C55.9681 32.72 55.9676 32.72 55.9671 32.72C55.9666 32.72 55.9661 32.72 55.9656 32.72C55.9651 32.72 55.9646 32.72 55.9641 32.72C55.9636 32.72 55.9631 32.72 55.9626 32.72C55.9621 32.72 55.9617 32.72 55.9612 32.72C55.9607 32.72 55.9602 32.72 55.9597 32.72C55.9592 32.72 55.9587 32.72 55.9582 32.72C55.9577 32.72 55.9572 32.72 55.9567 32.72C55.9562 32.72 55.9558 32.72 55.9553 32.72C55.9548 32.72 55.9543 32.72 55.9538 32.72C55.9533 32.72 55.9528 32.72 55.9523 32.72C55.9518 32.72 55.9513 32.72 55.9508 32.72C55.9503 32.72 55.9499 32.72 55.9494 32.72C55.9489 32.72 55.9484 32.72 55.9479 32.72C55.9474 32.72 55.9469 32.72 55.9464 32.72C55.9459 32.72 55.9454 32.72 55.9449 32.72C55.9445 32.72 55.944 32.72 55.9435 32.72C55.943 32.72 55.9425 32.72 55.942 32.72C55.9415 32.72 55.941 32.72 55.9405 32.72C55.94 32.72 55.9396 32.72 55.9391 32.72C55.9386 32.72 55.9381 32.72 55.9376 32.72C55.9371 32.72 55.9366 32.72 55.9361 32.72C55.9356 32.72 55.9351 32.72 55.9347 32.72C55.9342 32.72 55.9337 32.72 55.9332 32.72C55.9327 32.72 55.9322 32.72 55.9317 32.72C55.9312 32.72 55.9307 32.72 55.9303 32.72C55.9298 32.72 55.9293 32.72 55.9288 32.72C55.9283 32.72 55.9278 32.72 55.9273 32.72C55.9268 32.72 55.9263 32.72 55.9259 32.72C55.9254 32.72 55.9249 32.72 55.9244 32.72C55.9239 32.72 55.9234 32.72 55.9229 32.72C55.9224 32.72 55.9219 32.72 55.9215 32.72C55.921 32.72 55.9205 32.72 55.92 32.72C55.9195 32.72 55.919 32.72 55.9185 32.72C55.918 32.72 55.9176 32.72 55.9171 32.72C55.9166 32.72 55.9161 32.72 55.9156 32.72C55.9151 32.72 55.9146 32.72 55.9141 32.72C55.9137 32.72 55.9132 32.72 55.9127 32.72C55.9122 32.72 55.9117 32.72 55.9112 32.72C55.9107 32.72 55.9103 32.72 55.9098 32.72C55.9093 32.72 55.9088 32.72 55.9083 32.72C55.9078 32.72 55.9073 32.72 55.9068 32.72C55.9064 32.72 55.9059 32.72 55.9054 32.72C55.9049 32.72 55.9044 32.72 55.9039 32.72C55.9034 32.72 55.903 32.72 55.9025 32.72C55.902 32.72 55.9015 32.72 55.901 32.72C55.9005 32.72 55.9 32.72 55.8996 32.72C55.8991 32.72 55.8986 32.72 55.8981 32.72C55.8976 32.72 55.8971 32.72 55.8966 32.72C55.8962 32.72 55.8957 32.72 55.8952 32.72C55.8947 32.72 55.8942 32.72 55.8937 32.72C55.8933 32.72 55.8928 32.72 55.8923 32.72C55.8918 32.72 55.8913 32.72 55.8908 32.72C55.8903 32.72 55.8899 32.72 55.8894 32.72C55.8889 32.72 55.8884 32.72 55.8879 32.72C55.8874 32.72 55.887 32.72 55.8865 32.72C55.886 32.72 55.8855 32.72 55.885 32.72C55.8845 32.72 55.8841 32.72 55.8836 32.72C55.8831 32.72 55.8826 32.72 55.8821 32.72C55.8816 32.72 55.8811 32.72 55.8807 32.72C55.8802 32.72 55.8797 32.72 55.8792 32.72C55.8787 32.72 55.8782 32.72 55.8778 32.72C55.8773 32.72 55.8768 32.72 55.8763 32.72C55.8758 32.72 55.8754 32.72 55.8749 32.72C55.8744 32.72 55.8739 32.72 55.8734 32.72C55.8729 32.72 55.8725 32.72 55.872 32.72C55.8715 32.72 55.871 32.72 55.8705 32.72C55.87 32.72 55.8696 32.72 55.8691 32.72C55.8686 32.72 55.8681 32.72 55.8676 32.72C55.8672 32.72 55.8667 32.72 55.8662 32.72C55.8657 32.72 55.8652 32.72 55.8647 32.72C55.8643 32.72 55.8638 32.72 55.8633 32.72C55.8628 32.72 55.8623 32.72 55.8619 32.72C55.8614 32.72 55.8609 32.72 55.8604 32.72C55.8599 32.72 55.8594 32.72 55.859 32.72C55.8585 32.72 55.858 32.72 55.8575 32.72C55.857 32.72 55.8566 32.72 55.8561 32.72C55.8556 32.72 55.8551 32.72 55.8546 32.72C55.8542 32.72 55.8537 32.72 55.8532 32.72C55.8527 32.72 55.8522 32.72 55.8518 32.72C55.8513 32.72 55.8508 32.72 55.8503 32.72C55.8498 32.72 55.8494 32.72 55.8489 32.72C55.8484 32.72 55.8479 32.72 55.8474 32.72C55.847 32.72 55.8465 32.72 55.846 32.72C55.8455 32.72 55.845 32.72 55.8446 32.72C55.8441 32.72 55.8436 32.72 55.8431 32.72C55.8426 32.72 55.8422 32.72 55.8417 32.72C55.8412 32.72 55.8407 32.72 55.8403 32.72C55.8398 32.72 55.8393 32.72 55.8388 32.72C55.8383 32.72 55.8379 32.72 55.8374 32.72C55.8369 32.72 55.8364 32.72 55.8359 32.72C55.8355 32.72 55.835 32.72 55.8345 32.72C55.834 32.72 55.8336 32.72 55.8331 32.72C55.8326 32.72 55.8321 32.72 55.8316 32.72C55.8312 32.72 55.8307 32.72 55.8302 32.72C55.8297 32.72 55.8293 32.72 55.8288 32.72C55.8283 32.72 55.8278 32.72 55.8273 32.72C55.8269 32.72 55.8264 32.72 55.8259 32.72C55.8254 32.72 55.825 32.72 55.8245 32.72C55.824 32.72 55.8235 32.72 55.823 32.72C55.8226 32.72 55.8221 32.72 55.8216 32.72C55.8211 32.72 55.8207 32.72 55.8202 32.72C55.8197 32.72 55.8192 32.72 55.8188 32.72C55.8183 32.72 55.8178 32.72 55.8173 32.72C55.8169 32.72 55.8164 32.72 55.8159 32.72C55.8154 32.72 55.8149 32.72 55.8145 32.72C55.814 32.72 55.8135 32.72 55.813 32.72C55.8126 32.72 55.8121 32.72 55.8116 32.72C55.8111 32.72 55.8107 32.72 55.8102 32.72C55.8097 32.72 55.8092 32.72 55.8088 32.72C55.8083 32.72 55.8078 32.72 55.8073 32.72C55.8069 32.72 55.8064 32.72 55.8059 32.72C55.8054 32.72 55.805 32.72 55.8045 32.72C55.804 32.72 55.8035 32.72 55.8031 32.72C55.8026 32.72 55.8021 32.72 55.8016 32.72C55.8012 32.72 55.8007 32.72 55.8002 32.72C55.7997 32.72 55.7993 32.72 55.7988 32.72C55.7983 32.72 55.7978 32.72 55.7974 32.72C55.7969 32.72 55.7964 32.72 55.796 32.72C55.7955 32.72 55.795 32.72 55.7945 32.72C55.7941 32.72 55.7936 32.72 55.7931 32.72C55.7926 32.72 55.7922 32.72 55.7917 32.72C55.7912 32.72 55.7907 32.72 55.7903 32.72C55.7898 32.72 55.7893 32.72 55.7889 32.72C55.7884 32.72 55.7879 32.72 55.7874 32.72C55.787 32.72 55.7865 32.72 55.786 32.72C55.7855 32.72 55.7851 32.72 55.7846 32.72C55.7841 32.72 55.7837 32.72 55.7832 32.72C55.7827 32.72 55.7822 32.72 55.7818 32.72C55.7813 32.72 55.7808 32.72 55.7803 32.72C55.7799 32.72 55.7794 32.72 55.7789 32.72C55.7785 32.72 55.778 32.72 55.7775 32.72C55.777 32.72 55.7766 32.72 55.7761 32.72C55.7756 32.72 55.7752 32.72 55.7747 32.72C55.7742 32.72 55.7737 32.72 55.7733 32.72C55.7728 32.72 55.7723 32.72 55.7719 32.72C55.7714 32.72 55.7709 32.72 55.7704 32.72C55.77 32.72 55.7695 32.72 55.769 32.72C55.7686 32.72 55.7681 32.72 55.7676 32.72C55.7672 32.72 55.7667 32.72 55.7662 32.72C55.7657 32.72 55.7653 32.72 55.7648 32.72C55.7643 32.72 55.7639 32.72 55.7634 32.72C55.7629 32.72 55.7625 32.72 55.762 32.72C55.7615 32.72 55.761 32.72 55.7606 32.72C55.7601 32.72 55.7596 32.72 55.7592 32.72C55.7587 32.72 55.7582 32.72 55.7578 32.72C55.7573 32.72 55.7568 32.72 55.7563 32.72C55.7559 32.72 55.7554 32.72 55.7549 32.72C55.7545 32.72 55.754 32.72 55.7535 32.72C55.7531 32.72 55.7526 32.72 55.7521 32.72C55.7517 32.72 55.7512 32.72 55.7507 32.72C55.7503 32.72 55.7498 32.72 55.7493 32.72C55.7488 32.72 55.7484 32.72 55.7479 32.72C55.7474 32.72 55.747 32.72 55.7465 32.72C55.746 32.72 55.7456 32.72 55.7451 32.72C55.7446 32.72 55.7442 32.72 55.7437 32.72C55.7432 32.72 55.7428 32.72 55.7423 32.72C55.7418 32.72 55.7414 32.72 55.7409 32.72C55.7404 32.72 55.74 32.72 55.7395 32.72C55.739 32.72 55.7386 32.72 55.7381 32.72C55.7376 32.72 55.7372 32.72 55.7367 32.72C55.7362 32.72 55.7358 32.72 55.7353 32.72C55.7348 32.72 55.7344 32.72 55.7339 32.72C55.7334 32.72 55.733 32.72 55.7325 32.72C55.732 32.72 55.7316 32.72 55.7311 32.72C55.7306 32.72 55.7302 32.72 55.7297 32.72C55.7292 32.72 55.7288 32.72 55.7283 32.72C55.7278 32.72 55.7274 32.72 55.7269 32.72C55.7264 32.72 55.726 32.72 55.7255 32.72C55.725 32.72 55.7246 32.72 55.7241 32.72C55.7236 32.72 55.7232 32.72 55.7227 32.72C55.7222 32.72 55.7218 32.72 55.7213 32.72C55.7208 32.72 55.7204 32.72 55.7199 32.72C55.7194 32.72 55.719 32.72 55.7185 32.72C55.7181 32.72 55.7176 32.72 55.7171 32.72C55.7167 32.72 55.7162 32.72 55.7157 32.72C55.7153 32.72 55.7148 32.72 55.7143 32.72C55.7139 32.72 55.7134 32.72 55.7129 32.72C55.7125 32.72 55.712 32.72 55.7115 32.72C55.7111 32.72 55.7106 32.72 55.7102 32.72C55.7097 32.72 55.7092 32.72 55.7088 32.72C55.7083 32.72 55.7078 32.72 55.7074 32.72C55.7069 32.72 55.7064 32.72 55.706 32.72C55.7055 32.72 55.7051 32.72 55.7046 32.72C55.7041 32.72 55.7037 32.72 55.7032 32.72C55.7027 32.72 55.7023 32.72 55.7018 32.72C55.7014 32.72 55.7009 32.72 55.7004 32.72C55.7 32.72 55.6995 32.72 55.699 32.72C55.6986 32.72 55.6981 32.72 55.6977 32.72C55.6972 32.72 55.6967 32.72 55.6963 32.72C55.6958 32.72 55.6953 32.72 55.6949 32.72C55.6944 32.72 55.694 32.72 55.6935 32.72C55.693 32.72 55.6926 32.72 55.6921 32.72C55.6916 32.72 55.6912 32.72 55.6907 32.72C55.6903 32.72 55.6898 32.72 55.6893 32.72C55.6889 32.72 55.6884 32.72 55.688 32.72C55.6875 32.72 55.687 32.72 55.6866 32.72C55.6861 32.72 55.6856 32.72 55.6852 32.72C55.6847 32.72 55.6843 32.72 55.6838 32.72C55.6833 32.72 55.6829 32.72 55.6824 32.72C55.682 32.72 55.6815 32.72 55.681 32.72C55.6806 32.72 55.6801 32.72 55.6797 32.72C55.6792 32.72 55.6787 32.72 55.6783 32.72C55.6778 32.72 55.6774 32.72 55.6769 32.72C55.6764 32.72 55.676 32.72 55.6755 32.72C55.6751 32.72 55.6746 32.72 55.6741 32.72C55.6737 32.72 55.6732 32.72 55.6728 32.72C55.6723 32.72 55.6718 32.72 55.6714 32.72C55.6709 32.72 55.6705 32.72 55.67 32.72C55.6695 32.72 55.6691 32.72 55.6686 32.72C55.6682 32.72 55.6677 32.72 55.6673 32.72C55.6668 32.72 55.6663 32.72 55.6659 32.72C55.6654 32.72 55.665 32.72 55.6645 32.72C55.664 32.72 55.6636 32.72 55.6631 32.72C55.6627 32.72 55.6622 32.72 55.6618 32.72C55.6613 32.72 55.6608 32.72 55.6604 32.72C55.6599 32.72 55.6595 32.72 55.659 32.72C55.6585 32.72 55.6581 32.72 55.6576 32.72C55.6572 32.72 55.6567 32.72 55.6563 32.72C55.6558 32.72 55.6553 32.72 55.6549 32.72C55.6544 32.72 55.654 32.72 55.6535 32.72C55.6531 32.72 55.6526 32.72 55.6521 32.72C55.6517 32.72 55.6512 32.72 55.6508 32.72C55.6503 32.72 55.6499 32.72 55.6494 32.72C55.6489 32.72 55.6485 32.72 55.648 32.72C55.6476 32.72 55.6471 32.72 55.6467 32.72C55.6462 32.72 55.6457 32.72 55.6453 32.72C55.6448 32.72 55.6444 32.72 55.6439 32.72C55.6435 32.72 55.643 32.72 55.6426 32.72C55.6421 32.72 55.6416 32.72 55.6412 32.72C55.6407 32.72 55.6403 32.72 55.6398 32.72C55.6394 32.72 55.6389 32.72 55.6385 32.72C55.638 32.72 55.6375 32.72 55.6371 32.72C55.6366 32.72 55.6362 32.72 55.6357 32.72C55.6353 32.72 55.6348 32.72 55.6344 32.72C55.6339 32.72 55.6334 32.72 55.633 32.72C55.6325 32.72 55.6321 32.72 55.6316 32.72C55.6312 32.72 55.6307 32.72 55.6303 32.72C55.6298 32.72 55.6294 32.72 55.6289 32.72C55.6284 32.72 55.628 32.72 55.6275 32.72C55.6271 32.72 55.6266 32.72 55.6262 32.72C55.6257 32.72 55.6253 32.72 55.6248 32.72C55.6244 32.72 55.6239 32.72 55.6235 32.72C55.623 32.72 55.6225 32.72 55.6221 32.72C55.6216 32.72 55.6212 32.72 55.6207 32.72C55.6203 32.72 55.6198 32.72 55.6194 32.72C55.6189 32.72 55.6185 32.72 55.618 32.72C55.6176 32.72 55.6171 32.72 55.6167 32.72C55.6162 32.72 55.6158 32.72 55.6153 32.72C55.6148 32.72 55.6144 32.72 55.6139 32.72C55.6135 32.72 55.613 32.72 55.6126 32.72C55.6121 32.72 55.6117 32.72 55.6112 32.72C55.6108 32.72 55.6103 32.72 55.6099 32.72C55.6094 32.72 55.609 32.72 55.6085 32.72C55.6081 32.72 55.6076 32.72 55.6072 32.72C55.6067 32.72 55.6063 32.72 55.6058 32.72C55.6054 32.72 55.6049 32.72 55.6045 32.72C55.604 32.72 55.6035 32.72 55.6031 32.72C55.6026 32.72 55.6022 32.72 55.6017 32.72C55.6013 32.72 55.6008 32.72 55.6004 32.72C55.5999 32.72 55.5995 32.72 55.599 32.72C55.5986 32.72 55.5981 32.72 55.5977 32.72C55.5972 32.72 55.5968 32.72 55.5963 32.72C55.5959 32.72 55.5954 32.72 55.595 32.72C55.5945 32.72 55.5941 32.72 55.5936 32.72C55.5932 32.72 55.5927 32.72 55.5923 32.72C55.5918 32.72 55.5914 32.72 55.5909 32.72C55.5905 32.72 55.59 32.72 55.5896 32.72C55.5891 32.72 55.5887 32.72 55.5882 32.72C55.5878 32.72 55.5873 32.72 55.5869 32.72C55.5864 32.72 55.586 32.72 55.5855 32.72C55.5851 32.72 55.5846 32.72 55.5842 32.72C55.5837 32.72 55.5833 32.72 55.5828 32.72C55.5824 32.72 55.582 32.72 55.5815 32.72C55.5811 32.72 55.5806 32.72 55.5802 32.72C55.5797 32.72 55.5793 32.72 55.5788 32.72C55.5784 32.72 55.5779 32.72 55.5775 32.72C55.577 32.72 55.5766 32.72 55.5761 32.72C55.5757 32.72 55.5752 32.72 55.5748 32.72C55.5743 32.72 55.5739 32.72 55.5734 32.72C55.573 32.72 55.5725 32.72 55.5721 32.72C55.5716 32.72 55.5712 32.72 55.5708 32.72C55.5703 32.72 55.5699 32.72 55.5694 32.72C55.569 32.72 55.5685 32.72 55.5681 32.72C55.5676 32.72 55.5672 32.72 55.5667 32.72C55.5663 32.72 55.5658 32.72 55.5654 32.72C55.5649 32.72 55.5645 32.72 55.5641 32.72C55.5636 32.72 55.5632 32.72 55.5627 32.72C55.5623 32.72 55.5618 32.72 55.5614 32.72C55.5609 32.72 55.5605 32.72 55.56 32.72C55.5596 32.72 55.5591 32.72 55.5587 32.72C55.5583 32.72 55.5578 32.72 55.5574 32.72C55.5569 32.72 55.5565 32.72 55.556 32.72C55.5556 32.72 55.5551 32.72 55.5547 32.72C55.5542 32.72 55.5538 32.72 55.5534 32.72C55.5529 32.72 55.5525 32.72 55.552 32.72C55.5516 32.72 55.5511 32.72 55.5507 32.72C55.5502 32.72 55.5498 32.72 55.5493 32.72C55.5489 32.72 55.5485 32.72 55.548 32.72C55.5476 32.72 55.5471 32.72 55.5467 32.72C55.5462 32.72 55.5458 32.72 55.5453 32.72C55.5449 32.72 55.5445 32.72 55.544 32.72C55.5436 32.72 55.5431 32.72 55.5427 32.72C55.5422 32.72 55.5418 32.72 55.5414 32.72C55.5409 32.72 55.5405 32.72 55.54 32.72C55.5396 32.72 55.5391 32.72 55.5387 32.72C55.5382 32.72 55.5378 32.72 55.5374 32.72C55.5369 32.72 55.5365 32.72 55.536 32.72C55.5356 32.72 55.5351 32.72 55.5347 32.72C55.5343 32.72 55.5338 32.72 55.5334 32.72C55.5329 32.72 55.5325 32.72 55.532 32.72C55.5316 32.72 55.5312 32.72 55.5307 32.72C55.5303 32.72 55.5298 32.72 55.5294 32.72C55.529 32.72 55.5285 32.72 55.5281 32.72C55.5276 32.72 55.5272 32.72 55.5267 32.72C55.5263 32.72 55.5259 32.72 55.5254 32.72C55.525 32.72 55.5245 32.72 55.5241 32.72C55.5236 32.72 55.5232 32.72 55.5228 32.72C55.5223 32.72 55.5219 32.72 55.5214 32.72C55.521 32.72 55.5206 32.72 55.5201 32.72C55.5197 32.72 55.5192 32.72 55.5188 32.72C55.5184 32.72 55.5179 32.72 55.5175 32.72C55.517 32.72 55.5166 32.72 55.5162 32.72C55.5157 32.72 55.5153 32.72 55.5148 32.72C55.5144 32.72 55.5139 32.72 55.5135 32.72C55.5131 32.72 55.5126 32.72 55.5122 32.72C55.5117 32.72 55.5113 32.72 55.5109 32.72C55.5104 32.72 55.51 32.72 55.5095 32.72C55.5091 32.72 55.5087 32.72 55.5082 32.72C55.5078 32.72 55.5073 32.72 55.5069 32.72C55.5065 32.72 55.506 32.72 55.5056 32.72C55.5052 32.72 55.5047 32.72 55.5043 32.72C55.5038 32.72 55.5034 32.72 55.503 32.72C55.5025 32.72 55.5021 32.72 55.5016 32.72C55.5012 32.72 55.5008 32.72 55.5003 32.72C55.4999 32.72 55.4994 32.72 55.499 32.72C55.4986 32.72 55.4981 32.72 55.4977 32.72C55.4973 32.72 55.4968 32.72 55.4964 32.72C55.4959 32.72 55.4955 32.72 55.4951 32.72C55.4946 32.72 55.4942 32.72 55.4938 32.72C55.4933 32.72 55.4929 32.72 55.4924 32.72C55.492 32.72 55.4916 32.72 55.4911 32.72V33.12ZM56.2351 33.1198C56.5016 33.1092 56.7787 33.0985 57.0665 33.0879L57.0517 32.6881C56.7635 32.6988 56.486 32.7095 56.2191 32.7202L56.2351 33.1198ZM57.0665 33.0879C57.3545 33.0772 57.6425 33.0665 57.9305 33.0559L57.9157 32.6561C57.6277 32.6668 57.3397 32.6775 57.0517 32.6881L57.0665 33.0879ZM57.9303 33.0559C58.2321 33.0451 58.6132 33.0236 59.073 32.9915L59.0452 32.5925C58.5877 32.6244 58.2115 32.6456 57.916 32.6561L57.9303 33.0559ZM59.0727 32.9915C59.5415 32.9596 60.1223 32.9223 60.8154 32.8796L60.7908 32.4804C60.0973 32.5231 59.5154 32.5604 59.0455 32.5925L59.0727 32.9915ZM60.6031 32.68V34.84H61.0031V32.68H60.6031ZM66.5459 32.68L66.5568 32.4803L66.3459 32.4688V32.68H66.5459ZM73.0579 32.712L72.9165 32.5706L72.9165 32.5706L73.0579 32.712ZM73.2819 30.68H73.4819V30.48H73.2819V30.68ZM67.1539 29.928L67.0109 30.068L67.014 30.0709L67.1539 29.928ZM67.1539 24.568L67.2953 24.7094L67.2953 24.7094L67.1539 24.568ZM75.2179 23.8H75.4179V23.6H75.2179V23.8ZM75.2179 26.04V26.24H75.4179V26.04H75.2179ZM75.4259 34.424L75.2845 34.2826L75.2845 34.2826L75.4259 34.424ZM71.3939 35.128L71.3852 35.3278L71.3869 35.3279L71.3939 35.128ZM69.9219 35.064L69.9121 35.2638L69.9132 35.2638L69.9219 35.064ZM66.5459 34.84H66.3459V35.0242L66.5294 35.0393L66.5459 34.84ZM66.5349 32.8797C69.4569 33.0397 71.4409 33.12 72.4819 33.12V32.72C71.4535 32.72 69.4801 32.6403 66.5568 32.4803L66.5349 32.8797ZM72.4819 33.12C72.7662 33.12 73.0142 33.0385 73.1993 32.8534L72.9165 32.5706C72.8242 32.6628 72.6882 32.72 72.4819 32.72V33.12ZM73.1993 32.8534C73.3922 32.6605 73.4819 32.4091 73.4819 32.12H73.0819C73.0819 32.3216 73.0222 32.4648 72.9165 32.5706L73.1993 32.8534ZM73.4819 32.12V30.68H73.0819V32.12H73.4819ZM73.2819 30.48H69.6019V30.88H73.2819V30.48ZM69.6019 30.48C68.5057 30.48 67.7521 30.2338 67.2938 29.7851L67.014 30.0709C67.5797 30.6249 68.4581 30.88 69.6019 30.88V30.48ZM67.2968 29.7881C66.8481 29.3298 66.6019 28.5762 66.6019 27.48H66.2019C66.2019 28.6238 66.457 29.5022 67.011 30.0679L67.2968 29.7881ZM66.6019 27.48V27H66.2019V27.48H66.6019ZM66.6019 27C66.6019 25.9033 66.8483 25.1565 67.2953 24.7094L67.0125 24.4266C66.4568 24.9822 66.2019 25.8567 66.2019 27H66.6019ZM67.2953 24.7094C67.7536 24.2511 68.5066 24 69.6019 24V23.6C68.4571 23.6 67.5781 23.8609 67.0125 24.4266L67.2953 24.7094ZM69.6019 24H75.2179V23.6H69.6019V24ZM75.0179 23.8V26.04H75.4179V23.8H75.0179ZM75.2179 25.84H70.2419V26.24H75.2179V25.84ZM70.2419 25.84C69.891 25.84 69.5912 25.9278 69.3805 26.1386C69.1697 26.3493 69.0819 26.6492 69.0819 27H69.4819C69.4819 26.7108 69.554 26.5307 69.6633 26.4214C69.7726 26.3122 69.9527 26.24 70.2419 26.24V25.84ZM69.0819 27V27.32H69.4819V27H69.0819ZM69.0819 27.32C69.0819 27.6708 69.1697 27.9707 69.3805 28.1814C69.5912 28.3922 69.891 28.48 70.2419 28.48V28.08C69.9527 28.08 69.7726 28.0078 69.6633 27.8986C69.554 27.7893 69.4819 27.6092 69.4819 27.32H69.0819ZM70.2419 28.48H73.1219V28.08H70.2419V28.48ZM73.1219 28.48C74.1407 28.48 74.8466 28.7196 75.2845 29.1574L75.5673 28.8746C75.0238 28.3311 74.1938 28.08 73.1219 28.08V28.48ZM75.2845 29.1574C75.7223 29.5953 75.9619 30.3012 75.9619 31.32H76.3619C76.3619 30.2481 76.1108 29.4181 75.5673 28.8746L75.2845 29.1574ZM75.9619 31.32V32.12H76.3619V31.32H75.9619ZM75.9619 32.12C75.9619 33.1388 75.7223 33.8447 75.2845 34.2826L75.5673 34.5654C76.1108 34.0219 76.3619 33.1919 76.3619 32.12H75.9619ZM75.2845 34.2826C74.8466 34.7204 74.1407 34.96 73.1219 34.96V35.36C74.1938 35.36 75.0238 35.1089 75.5673 34.5654L75.2845 34.2826ZM73.1219 34.96C72.5805 34.96 72.0068 34.9494 71.4009 34.9281L71.3869 35.3279C71.9969 35.3493 72.5753 35.36 73.1219 35.36V34.96ZM71.4026 34.9282L69.9306 34.8642L69.9132 35.2638L71.3852 35.3278L71.4026 34.9282ZM69.9317 34.8642C68.846 34.811 67.7229 34.7365 66.5623 34.6407L66.5294 35.0393C67.6941 35.1355 68.8217 35.2103 69.9121 35.2638L69.9317 34.8642ZM66.7459 34.84V32.68H66.3459V34.84H66.7459ZM83.2806 32.52L83.3378 32.7116L83.4806 32.669V32.52H83.2806ZM83.2806 26.52V26.32H83.0806V26.52H83.2806ZM86.0806 26.52H86.2806V26.32H86.0806V26.52ZM86.0806 35V35.2H86.2806V35H86.0806ZM83.6006 35L83.4045 35.0392L83.4367 35.2H83.6006V35ZM83.4406 34.2L83.6367 34.1608L83.5785 33.8695L83.3305 34.033L83.4406 34.2ZM81.8886 34.936L81.9436 35.1283L81.9461 35.1276L81.8886 34.936ZM78.0966 34.504L78.238 34.3626L78.238 34.3626L78.0966 34.504ZM77.4406 26.52V26.32H77.2406V26.52H77.4406ZM80.2406 26.52H80.4406V26.32H80.2406V26.52ZM80.4006 32.68L80.542 32.5386L80.542 32.5386L80.4006 32.68ZM81.3606 33.04C81.9504 33.04 82.6102 32.9289 83.3378 32.7116L83.2234 32.3284C82.5218 32.5378 81.9015 32.64 81.3606 32.64V33.04ZM83.4806 32.52V26.52H83.0806V32.52H83.4806ZM83.2806 26.72H86.0806V26.32H83.2806V26.72ZM85.8806 26.52V35H86.2806V26.52H85.8806ZM86.0806 34.8H83.6006V35.2H86.0806V34.8ZM83.7967 34.9608L83.6367 34.1608L83.2445 34.2392L83.4045 35.0392L83.7967 34.9608ZM83.3305 34.033C82.8442 34.3538 82.3444 34.5905 81.8312 34.7444L81.9461 35.1276C82.4995 34.9615 83.0344 34.7075 83.5507 34.367L83.3305 34.033ZM81.8337 34.7437C81.3209 34.8902 80.8979 34.96 80.5606 34.96V35.36C80.9486 35.36 81.411 35.2805 81.9436 35.1283L81.8337 34.7437ZM80.5606 34.96H79.8406V35.36H80.5606V34.96ZM79.8406 34.96C79.1585 34.96 78.6314 34.756 78.238 34.3626L77.9552 34.6454C78.4365 35.1267 79.0721 35.36 79.8406 35.36V34.96ZM78.238 34.3626C77.8447 33.9692 77.6406 33.4422 77.6406 32.76H77.2406C77.2406 33.5285 77.4739 34.1641 77.9552 34.6454L78.238 34.3626ZM77.6406 32.76V26.52H77.2406V32.76H77.6406ZM77.4406 26.72H80.2406V26.32H77.4406V26.72ZM80.0406 26.52V32.28H80.4406V26.52H80.0406ZM80.0406 32.28C80.0406 32.4895 80.1126 32.6748 80.2592 32.8214L80.542 32.5386C80.4753 32.4719 80.4406 32.3905 80.4406 32.28H80.0406ZM80.2592 32.8214C80.4058 32.968 80.5912 33.04 80.8006 33.04V32.64C80.6901 32.64 80.6088 32.6053 80.542 32.5386L80.2592 32.8214ZM80.8006 33.04H81.3606V32.64H80.8006V33.04ZM90.475 29L90.4178 28.8084L90.275 28.851V29H90.475ZM90.475 32.84H90.275V33.04H90.475V32.84ZM93.355 28.84L93.4964 28.6986L93.4964 28.6986L93.355 28.84ZM90.475 35V34.8H90.275V35H90.475ZM90.475 37.72V37.92H90.675V37.72H90.475ZM87.675 37.72H87.475V37.92H87.675V37.72ZM87.675 26.52V26.32H87.475V26.52H87.675ZM90.155 26.52L90.3511 26.4808L90.319 26.32H90.155V26.52ZM90.315 27.32L90.1189 27.3592L90.1771 27.6505L90.4251 27.487L90.315 27.32ZM91.851 26.6L91.9059 26.7923L91.9085 26.7916L91.851 26.6ZM95.659 27.016L95.5176 27.1574L95.5176 27.1574L95.659 27.016ZM95.627 34.328L95.7684 34.4694L95.7684 34.4694L95.627 34.328ZM92.395 28.48C91.8052 28.48 91.1455 28.5911 90.4178 28.8084L90.5322 29.1916C91.2339 28.9822 91.8541 28.88 92.395 28.88V28.48ZM90.275 29V32.84H90.675V29H90.275ZM90.475 33.04H92.875V32.64H90.475V33.04ZM92.875 33.04C93.1192 33.04 93.339 32.9788 93.4964 32.8214C93.6538 32.664 93.715 32.4442 93.715 32.2H93.315C93.315 32.3825 93.2695 32.4826 93.2136 32.5386C93.1576 32.5945 93.0575 32.64 92.875 32.64V33.04ZM93.715 32.2V29.24H93.315V32.2H93.715ZM93.715 29.24C93.715 29.0305 93.643 28.8452 93.4964 28.6986L93.2136 28.9814C93.2803 29.0481 93.315 29.1295 93.315 29.24H93.715ZM93.4964 28.6986C93.3498 28.552 93.1645 28.48 92.955 28.48V28.88C93.0655 28.88 93.1469 28.9147 93.2136 28.9814L93.4964 28.6986ZM92.955 28.48H92.395V28.88H92.955V28.48ZM90.275 35V37.72H90.675V35H90.275ZM90.475 37.52H87.675V37.92H90.475V37.52ZM87.875 37.72V26.52H87.475V37.72H87.875ZM87.675 26.72H90.155V26.32H87.675V26.72ZM89.9589 26.5592L90.1189 27.3592L90.5111 27.2808L90.3511 26.4808L89.9589 26.5592ZM90.4251 27.487C90.9112 27.1663 91.4048 26.9355 91.9059 26.7923L91.7961 26.4077C91.2519 26.5632 90.7214 26.8123 90.2049 27.153L90.4251 27.487ZM91.9085 26.7916C92.432 26.6345 92.8593 26.56 93.195 26.56V26.16C92.8054 26.16 92.3367 26.2455 91.7935 26.4084L91.9085 26.7916ZM93.195 26.56H93.915V26.16H93.195V26.56ZM93.915 26.56C94.5972 26.56 95.1242 26.764 95.5176 27.1574L95.8004 26.8746C95.3191 26.3933 94.6835 26.16 93.915 26.16V26.56ZM95.5176 27.1574C95.911 27.5508 96.115 28.0778 96.115 28.76H96.515C96.515 27.9915 96.2817 27.3559 95.8004 26.8746L95.5176 27.1574ZM96.115 28.76V32.44H96.515V28.76H96.115ZM96.115 32.44C96.115 33.2001 95.8984 33.7738 95.4856 34.1866L95.7684 34.4694C96.273 33.9649 96.515 33.2799 96.515 32.44H96.115ZM95.4856 34.1866C95.0843 34.5878 94.5166 34.8 93.755 34.8V35.2C94.5934 35.2 95.2737 34.9642 95.7684 34.4694L95.4856 34.1866ZM93.755 34.8H90.475V35.2H93.755V34.8ZM100.553 29.32L100.471 29.1375L100.353 29.1904V29.32H100.553ZM100.553 35V35.2H100.753V35H100.553ZM97.7531 35H97.5531V35.2H97.7531V35ZM97.7531 26.52V26.32H97.5531V26.52H97.7531ZM100.233 26.52L100.431 26.4896L100.405 26.32H100.233V26.52ZM100.393 27.56L100.195 27.5904L100.251 27.9496L100.525 27.7107L100.393 27.56ZM103.993 26.36H104.193V26.16H103.993V26.36ZM103.993 28.84V29.04H104.193V28.84H103.993ZM102.633 28.64C101.929 28.64 101.208 28.8078 100.471 29.1375L100.635 29.5025C101.328 29.1922 101.994 29.04 102.633 29.04V28.64ZM100.353 29.32V35H100.753V29.32H100.353ZM100.553 34.8H97.7531V35.2H100.553V34.8ZM97.9531 35V26.52H97.5531V35H97.9531ZM97.7531 26.72H100.233V26.32H97.7531V26.72ZM100.035 26.5504L100.195 27.5904L100.591 27.5296L100.431 26.4896L100.035 26.5504ZM100.525 27.7107C101.414 26.9354 102.329 26.56 103.273 26.56V26.16C102.212 26.16 101.207 26.5846 100.262 27.4093L100.525 27.7107ZM103.273 26.56H103.993V26.16H103.273V26.56ZM103.793 26.36V28.84H104.193V26.36H103.793ZM103.993 28.64H102.633V29.04H103.993V28.64ZM109.752 32.6L109.809 32.7916L109.952 32.749V32.6H109.752ZM109.752 31.64H109.952V31.44H109.752V31.64ZM107.032 31.8L107.173 31.9414L107.173 31.9414L107.032 31.8ZM107.032 32.76L106.89 32.9014L106.89 32.9014L107.032 32.76ZM104.872 26.68L104.85 26.4812L104.672 26.5007V26.68H104.872ZM111.896 27.016L111.754 27.1574L111.754 27.1574L111.896 27.016ZM112.552 35V35.2H112.752V35H112.552ZM110.072 35L109.876 35.0392L109.908 35.2H110.072V35ZM109.912 34.2L110.108 34.1608L110.05 33.8695L109.802 34.033L109.912 34.2ZM108.36 34.936L108.415 35.1283L108.417 35.1276L108.36 34.936ZM104.728 34.504L104.586 34.6454L104.586 34.6454L104.728 34.504ZM104.728 30.296L104.869 30.4374L104.869 30.4374L104.728 30.296ZM109.752 29.64V29.84H109.952V29.64H109.752ZM109.592 28.6L109.45 28.7414L109.45 28.7414L109.592 28.6ZM106.888 28.536L106.873 28.3366L106.873 28.3366L106.888 28.536ZM104.872 28.68H104.672V28.8929L104.884 28.8796L104.872 28.68ZM107.832 33.12C108.422 33.12 109.081 33.0089 109.809 32.7916L109.695 32.4084C108.993 32.6178 108.373 32.72 107.832 32.72V33.12ZM109.952 32.6V31.64H109.552V32.6H109.952ZM109.752 31.44H107.432V31.84H109.752V31.44ZM107.432 31.44C107.222 31.44 107.037 31.512 106.89 31.6586L107.173 31.9414C107.24 31.8747 107.321 31.84 107.432 31.84V31.44ZM106.89 31.6586C106.744 31.8052 106.672 31.9905 106.672 32.2H107.072C107.072 32.0895 107.107 32.0081 107.173 31.9414L106.89 31.6586ZM106.672 32.2V32.36H107.072V32.2H106.672ZM106.672 32.36C106.672 32.5695 106.744 32.7548 106.89 32.9014L107.173 32.6186C107.107 32.5519 107.072 32.4705 107.072 32.36H106.672ZM106.89 32.9014C107.037 33.048 107.222 33.12 107.432 33.12V32.72C107.321 32.72 107.24 32.6853 107.173 32.6186L106.89 32.9014ZM107.432 33.12H107.832V32.72H107.432V33.12ZM104.894 26.8788C106.84 26.6661 108.593 26.56 110.152 26.56V26.16C108.575 26.16 106.808 26.2672 104.85 26.4812L104.894 26.8788ZM110.152 26.56C110.834 26.56 111.361 26.764 111.754 27.1574L112.037 26.8746C111.556 26.3933 110.92 26.16 110.152 26.16V26.56ZM111.754 27.1574C112.148 27.5508 112.352 28.0778 112.352 28.76H112.752C112.752 27.9915 112.519 27.3559 112.037 26.8746L111.754 27.1574ZM112.352 28.76V35H112.752V28.76H112.352ZM112.552 34.8H110.072V35.2H112.552V34.8ZM110.268 34.9608L110.108 34.1608L109.716 34.2392L109.876 35.0392L110.268 34.9608ZM109.802 34.033C109.315 34.3538 108.816 34.5905 108.302 34.7444L108.417 35.1276C108.971 34.9615 109.506 34.7075 110.022 34.367L109.802 34.033ZM108.305 34.7437C107.792 34.8902 107.369 34.96 107.032 34.96V35.36C107.42 35.36 107.882 35.2805 108.415 35.1283L108.305 34.7437ZM107.032 34.96H106.472V35.36H107.032V34.96ZM106.472 34.96C105.79 34.96 105.263 34.756 104.869 34.3626L104.586 34.6454C105.068 35.1267 105.703 35.36 106.472 35.36V34.96ZM104.869 34.3626C104.476 33.9692 104.272 33.4422 104.272 32.76H103.872C103.872 33.5285 104.105 34.1641 104.586 34.6454L104.869 34.3626ZM104.272 32.76V32.04H103.872V32.76H104.272ZM104.272 32.04C104.272 31.3578 104.476 30.8308 104.869 30.4374L104.586 30.1546C104.105 30.6359 103.872 31.2715 103.872 32.04H104.272ZM104.869 30.4374C105.263 30.044 105.79 29.84 106.472 29.84V29.44C105.703 29.44 105.068 29.6733 104.586 30.1546L104.869 30.4374ZM106.472 29.84H109.752V29.44H106.472V29.84ZM109.952 29.64V29H109.552V29.64H109.952ZM109.952 29C109.952 28.7905 109.88 28.6052 109.733 28.4586L109.45 28.7414C109.517 28.8081 109.552 28.8895 109.552 29H109.952ZM109.733 28.4586C109.587 28.312 109.401 28.24 109.192 28.24V28.64C109.302 28.64 109.384 28.6747 109.45 28.7414L109.733 28.4586ZM109.192 28.24C108.493 28.24 107.719 28.2723 106.873 28.3366L106.903 28.7354C107.742 28.6717 108.505 28.64 109.192 28.64V28.24ZM106.873 28.3366C106.041 28.4006 105.37 28.4485 104.859 28.4804L104.884 28.8796C105.398 28.8475 106.071 28.7994 106.903 28.7354L106.873 28.3366ZM105.072 28.68V26.68H104.672V28.68H105.072Z" fill="black" fill-opacity="0.08" mask="url(#path-10-outside-1_304_813)"/>
<path opacity="0.5" d="M240.71 33V26H241.77V32.16H244.95V33H240.71ZM250.408 33.12C249.908 33.12 249.455 33.0233 249.048 32.83C248.648 32.63 248.328 32.3267 248.088 31.92C247.855 31.5133 247.738 30.9967 247.738 30.37V26H248.798V30.38C248.798 30.9933 248.945 31.4433 249.238 31.73C249.531 32.0167 249.928 32.16 250.428 32.16C250.921 32.16 251.315 32.0167 251.608 31.73C251.901 31.4433 252.048 30.9933 252.048 30.38V26H253.108V30.37C253.108 30.9967 252.985 31.5133 252.738 31.92C252.498 32.3267 252.171 32.63 251.758 32.83C251.351 33.0233 250.901 33.12 250.408 33.12ZM256.118 33L258.278 29.46L256.098 26H257.308L258.958 28.62L260.498 26H261.688L259.518 29.51L261.718 33H260.508L258.848 30.36L257.308 33H256.118ZM272.416 33.12C271.723 33.12 271.123 32.97 270.616 32.67C270.116 32.3633 269.729 31.94 269.456 31.4C269.183 30.8533 269.046 30.2233 269.046 29.51C269.046 28.79 269.183 28.16 269.456 27.62C269.729 27.0733 270.116 26.6467 270.616 26.34C271.123 26.0333 271.723 25.88 272.416 25.88C273.236 25.88 273.906 26.08 274.426 26.48C274.946 26.88 275.276 27.44 275.416 28.16H274.236C274.143 27.7533 273.943 27.43 273.636 27.19C273.329 26.95 272.919 26.83 272.406 26.83C271.706 26.83 271.153 27.07 270.746 27.55C270.339 28.0233 270.136 28.6767 270.136 29.51C270.136 30.3367 270.339 30.9867 270.746 31.46C271.153 31.9333 271.706 32.17 272.406 32.17C272.919 32.17 273.329 32.0567 273.636 31.83C273.943 31.6033 274.143 31.2933 274.236 30.9H275.416C275.276 31.5933 274.946 32.1367 274.426 32.53C273.906 32.9233 273.236 33.12 272.416 33.12ZM278.004 33L280.584 26H281.744L284.304 33H283.184L282.584 31.29H279.724L279.124 33H278.004ZM280.024 30.45H282.284L281.154 27.26L280.024 30.45ZM287.28 33V26H289.69C290.244 26 290.697 26.0933 291.05 26.28C291.41 26.4667 291.677 26.72 291.85 27.04C292.024 27.3533 292.11 27.7033 292.11 28.09C292.11 28.5233 291.994 28.9167 291.76 29.27C291.534 29.6233 291.177 29.8767 290.69 30.03L292.18 33H290.95L289.59 30.18H288.34V33H287.28ZM288.34 29.38H289.63C290.11 29.38 290.46 29.2633 290.68 29.03C290.907 28.7967 291.02 28.4933 291.02 28.12C291.02 27.7467 290.91 27.45 290.69 27.23C290.47 27.0033 290.114 26.89 289.62 26.89H288.34V29.38ZM295.364 33V26H297.634C298.454 26 299.128 26.1433 299.654 26.43C300.188 26.7167 300.581 27.1233 300.834 27.65C301.094 28.17 301.224 28.79 301.224 29.51C301.224 30.2233 301.094 30.8433 300.834 31.37C300.581 31.89 300.188 32.2933 299.654 32.58C299.128 32.86 298.454 33 297.634 33H295.364ZM296.424 32.1H297.594C298.228 32.1 298.728 31.9967 299.094 31.79C299.468 31.5833 299.734 31.2867 299.894 30.9C300.061 30.5133 300.144 30.05 300.144 29.51C300.144 28.97 300.061 28.5033 299.894 28.11C299.734 27.7167 299.468 27.4167 299.094 27.21C298.728 26.9967 298.228 26.89 297.594 26.89H296.424V32.1Z" fill="white"/>
<path d="M267 175C274.732 175 281 168.732 281 161C281 153.268 274.732 147 267 147C259.268 147 253 153.268 253 161C253 168.732 259.268 175 267 175Z" fill="white" fill-opacity="0.7"/>
<path d="M287 175C294.732 175 301 168.732 301 161C301 153.268 294.732 147 287 147C279.268 147 273 153.268 273 161C273 168.732 279.268 175 287 175Z" fill="white" fill-opacity="0.5"/>
<defs>
    <filter id="filter0_i_304_813" x="18.96" y="23.8" width="93.5919" height="13.92" filterUnits="userSpaceOnUse" color-interpolation-filters="sRGB">
        <feFlood flood-opacity="0" result="BackgroundImageFix"/>
        <feBlend mode="normal" in="SourceGraphic" in2="BackgroundImageFix" result="shape"/>
        <feColorMatrix in="SourceAlpha" type="matrix" values="0 0 0 0 0 0 0 0 0 0 0 0 0 0 0 0 0 0 127 0" result="hardAlpha"/>
        <feOffset dx="0.5"/>
        <feComposite in2="hardAlpha" operator="arithmetic" k2="-1" k3="1"/>
        <feColorMatrix type="matrix" values="0 0 0 0 0 0 0 0 0 0 0 0 0 0 0 0 0 0 0.22 0"/>
        <feBlend mode="normal" in2="shape" result="effect1_innerShadow_304_813"/>
    </filter>
    <radialGradient id="paint0_radial_304_813" cx="0" cy="0" r="1" gradientUnits="userSpaceOnUse" gradientTransform="translate(191 224) rotate(150.928) scale(311.783 435.93)">
        <stop stop-color="#FEF7C9"/>
        <stop offset="0.407489" stop-color="#FFCDD4"/>
        <stop offset="1" stop-color="#86CAFB"/>
    </radialGradient>
    <linearGradient id="paint1_linear_304_813" x1="57" y1="98.2369" x2="19.65" y2="125.287" gradientUnits="userSpaceOnUse">
        <stop stop-color="#CDCDCD"/>
        <stop offset="0.447917" stop-color="#E8E8E8"/>
        <stop offset="1" stop-color="#B4B4B4"/>
    </linearGradient>
    <linearGradient id="paint2_linear_304_813" x1="57" y1="98.2369" x2="19.65" y2="125.287" gradientUnits="userSpaceOnUse">
        <stop stop-color="#CDCDCD"/>
        <stop offset="0.447917" stop-color="#E8E8E8"/>
        <stop offset="1" stop-color="#B4B4B4"/>
    </linearGradient>
</defs>
</svg>
