<svg width="319" height="191" viewBox="0 0 319 191" fill="none" xmlns="http://www.w3.org/2000/svg">
    <rect y="191" width="191" height="319" rx="11" transform="rotate(-90 0 191)" fill="url(#paint0_radial_15_92)"/>
    <mask id="mask0_15_92" style="mask-type:alpha" maskUnits="userSpaceOnUse" x="18" y="96" width="42" height="30">
        <rect x="18" y="96" width="42" height="29.8251" rx="3" fill="url(#paint1_linear_15_92)"/>
    </mask>
    <g mask="url(#mask0_15_92)">
        <rect x="18" y="96" width="42" height="29.8251" rx="3" fill="url(#paint2_linear_15_92)"/>
        <path fill-rule="evenodd" clip-rule="evenodd" d="M27.6974 105.22H18V104.921H27.8026L31.65 107.981V116.317L28.5621 119.386H18V119.088H28.4379L31.35 116.193V108.125L27.6974 105.22Z" fill="#868686"/>
        <path fill-rule="evenodd" clip-rule="evenodd" d="M49.569 101.491H60.75V101.193H49.431L44.85 106.507V116.31L49.431 121.623H60.75V121.325H49.569L45.15 116.2V106.617L49.569 101.491Z" fill="#868686"/>
        <path fill-rule="evenodd" clip-rule="evenodd" d="M37.7804 100.545L30 94.7809L30.18 94.5087L38.0943 100.372V106.107H45V106.439H37.7804V100.545Z" fill="#868686"/>
        <path fill-rule="evenodd" clip-rule="evenodd" d="M31.5 116.106H38.4V121.549L32.34 126.067L32.16 125.829L38.1 121.4V116.404H31.5V116.106Z" fill="#868686"/>
        <path fill-rule="evenodd" clip-rule="evenodd" d="M45 116.106H38.1V121.549L44.16 126.067L44.34 125.829L38.4 121.4V116.404H45V116.106Z" fill="#868686"/>
    </g>
    <rect x="18.25" y="96.25" width="41.5" height="29.3251" rx="2.75" stroke="white" stroke-width="0.5"/>
    <path d="M17.0664 25.8418H18.9355V35H17.0664V25.8418ZM20.752 30.3652C20.752 29.7129 20.875 29.1055 21.1211 28.543C21.3672 27.9766 21.7227 27.4863 22.1875 27.0723C22.6562 26.6543 23.2266 26.3262 23.8984 26.0879C24.5742 25.8496 25.3379 25.7305 26.1895 25.7305C26.9355 25.7305 27.6191 25.8066 28.2402 25.959C28.8652 26.1074 29.4453 26.3359 29.9805 26.6445L29.125 28.0508C28.9648 27.9453 28.7793 27.8516 28.5684 27.7695C28.3613 27.6875 28.1387 27.6191 27.9004 27.5645C27.666 27.5059 27.4219 27.4609 27.168 27.4297C26.918 27.3984 26.6699 27.3828 26.4238 27.3828C25.8301 27.3828 25.3008 27.457 24.8359 27.6055C24.3711 27.75 23.9785 27.9551 23.6582 28.2207C23.3418 28.4824 23.0996 28.7969 22.9316 29.1641C22.7676 29.5273 22.6855 29.9277 22.6855 30.3652C22.6855 30.8184 22.7715 31.2344 22.9434 31.6133C23.1152 31.9922 23.3633 32.3203 23.6875 32.5977C24.0156 32.8711 24.4141 33.0859 24.8828 33.2422C25.3555 33.3945 25.8887 33.4707 26.4824 33.4707C26.752 33.4707 27.0195 33.4512 27.2852 33.4121C27.5508 33.373 27.8066 33.3203 28.0527 33.2539C28.3027 33.1836 28.543 33.1016 28.7734 33.0078C29.0039 32.9102 29.2188 32.8047 29.418 32.6914L30.2734 34.0977C29.7734 34.418 29.1953 34.6699 28.5391 34.8535C27.8828 35.0332 27.1855 35.123 26.4473 35.123C25.5059 35.123 24.6797 35.002 23.9688 34.7598C23.2578 34.5137 22.6641 34.1777 22.1875 33.752C21.7109 33.3223 21.3516 32.8184 21.1094 32.2402C20.8711 31.6582 20.752 31.0332 20.752 30.3652ZM32.0898 25.8418H33.959V35H32.0898V25.8418ZM35.7754 30.3652C35.7754 29.7129 35.8984 29.1055 36.1445 28.543C36.3906 27.9766 36.7461 27.4863 37.2109 27.0723C37.6797 26.6543 38.25 26.3262 38.9219 26.0879C39.5977 25.8496 40.3613 25.7305 41.2129 25.7305C41.959 25.7305 42.6426 25.8066 43.2637 25.959C43.8887 26.1074 44.4688 26.3359 45.0039 26.6445L44.1484 28.0508C43.9883 27.9453 43.8027 27.8516 43.5918 27.7695C43.3848 27.6875 43.1621 27.6191 42.9238 27.5645C42.6895 27.5059 42.4453 27.4609 42.1914 27.4297C41.9414 27.3984 41.6934 27.3828 41.4473 27.3828C40.8535 27.3828 40.3242 27.457 39.8594 27.6055C39.3945 27.75 39.002 27.9551 38.6816 28.2207C38.3652 28.4824 38.123 28.7969 37.9551 29.1641C37.791 29.5273 37.709 29.9277 37.709 30.3652C37.709 30.8184 37.7949 31.2344 37.9668 31.6133C38.1387 31.9922 38.3867 32.3203 38.7109 32.5977C39.0391 32.8711 39.4375 33.0859 39.9062 33.2422C40.3789 33.3945 40.9121 33.4707 41.5059 33.4707C41.7754 33.4707 42.043 33.4512 42.3086 33.4121C42.5742 33.373 42.8301 33.3203 43.0762 33.2539C43.3262 33.1836 43.5664 33.1016 43.7969 33.0078C44.0273 32.9102 44.2422 32.8047 44.4414 32.6914L45.2969 34.0977C44.7969 34.418 44.2188 34.6699 43.5625 34.8535C42.9062 35.0332 42.209 35.123 41.4707 35.123C40.5293 35.123 39.7031 35.002 38.9922 34.7598C38.2812 34.5137 37.6875 34.1777 37.2109 33.752C36.7344 33.3223 36.375 32.8184 36.1328 32.2402C35.8945 31.6582 35.7754 31.0332 35.7754 30.3652ZM47.1133 25.8418H48.9824V35H47.1133V25.8418ZM55.7676 32.2754C56.0996 32.4629 56.4355 32.6328 56.7754 32.7852C57.1191 32.9336 57.4746 33.0605 57.8418 33.166C58.209 33.2676 58.5938 33.3457 58.9961 33.4004C59.4023 33.4551 59.834 33.4824 60.291 33.4824C60.8418 33.4824 61.3105 33.4473 61.6973 33.377C62.084 33.3027 62.3984 33.2031 62.6406 33.0781C62.8867 32.9492 63.0645 32.7969 63.1738 32.6211C63.2871 32.4453 63.3438 32.2539 63.3438 32.0469C63.3438 31.7148 63.2051 31.4531 62.9277 31.2617C62.6504 31.0664 62.2227 30.9688 61.6445 30.9688C61.3906 30.9688 61.123 30.9863 60.8418 31.0215C60.5605 31.0527 60.2754 31.0879 59.9863 31.127C59.7012 31.166 59.418 31.2031 59.1367 31.2383C58.8594 31.2695 58.5977 31.2852 58.3516 31.2852C57.9414 31.2852 57.5469 31.2324 57.168 31.127C56.793 31.0215 56.459 30.8633 56.166 30.6523C55.877 30.4414 55.6465 30.1777 55.4746 29.8613C55.3027 29.5449 55.2168 29.1758 55.2168 28.7539C55.2168 28.5039 55.25 28.2559 55.3164 28.0098C55.3867 27.7637 55.4961 27.5293 55.6445 27.3066C55.7969 27.0801 55.9922 26.8711 56.2305 26.6797C56.4688 26.4844 56.7559 26.3164 57.0918 26.1758C57.4316 26.0352 57.8223 25.9258 58.2637 25.8477C58.709 25.7656 59.2148 25.7246 59.7812 25.7246C60.1914 25.7246 60.6035 25.748 61.0176 25.7949C61.4316 25.8379 61.834 25.9004 62.2246 25.9824C62.6191 26.0645 62.998 26.1641 63.3613 26.2812C63.7246 26.3945 64.0625 26.5215 64.375 26.6621L63.5605 28.1621C63.3027 28.0488 63.0254 27.9453 62.7285 27.8516C62.4316 27.7539 62.1211 27.6699 61.7969 27.5996C61.4727 27.5293 61.1367 27.4746 60.7891 27.4355C60.4453 27.3926 60.0938 27.3711 59.7344 27.3711C59.2227 27.3711 58.8008 27.4082 58.4688 27.4824C58.1406 27.5566 57.8789 27.6523 57.6836 27.7695C57.4883 27.8828 57.3516 28.0117 57.2734 28.1562C57.1992 28.2969 57.1621 28.4375 57.1621 28.5781C57.1621 28.8516 57.2852 29.0762 57.5312 29.252C57.7773 29.4238 58.1523 29.5098 58.6562 29.5098C58.8594 29.5098 59.0918 29.4961 59.3535 29.4688C59.6191 29.4375 59.8965 29.4043 60.1855 29.3691C60.4785 29.334 60.7754 29.3027 61.0762 29.2754C61.3809 29.2441 61.6758 29.2285 61.9609 29.2285C62.5 29.2285 62.9766 29.2891 63.3906 29.4102C63.8086 29.5312 64.1582 29.7051 64.4395 29.9316C64.7207 30.1543 64.9336 30.4258 65.0781 30.7461C65.2227 31.0625 65.2949 31.418 65.2949 31.8125C65.2949 32.3398 65.1719 32.8105 64.9258 33.2246C64.6836 33.6348 64.3359 33.9824 63.8828 34.2676C63.4336 34.5488 62.8906 34.7637 62.2539 34.9121C61.6172 35.0566 60.9082 35.1289 60.127 35.1289C59.6113 35.1289 59.1074 35.0957 58.6152 35.0293C58.123 34.9668 57.6504 34.877 57.1973 34.7598C56.748 34.6387 56.3184 34.4961 55.9082 34.332C55.502 34.1641 55.125 33.9805 54.7773 33.7812L55.7676 32.2754ZM67.123 28.0801H68.8516V31.4551C68.8516 31.7754 68.8867 32.0684 68.957 32.334C69.0273 32.5957 69.1465 32.8203 69.3145 33.0078C69.4863 33.1953 69.7129 33.3418 69.9941 33.4473C70.2793 33.5488 70.6328 33.5996 71.0547 33.5996C71.2539 33.5996 71.4551 33.5781 71.6582 33.5352C71.8652 33.4922 72.0625 33.4336 72.25 33.3594C72.4375 33.2812 72.6113 33.1895 72.7715 33.084C72.9355 32.9785 73.0762 32.8633 73.1934 32.7383V28.0801H74.9277V35H73.1934V34.4082C72.7676 34.6621 72.3398 34.8438 71.9102 34.9531C71.4805 35.0625 71.0723 35.1172 70.6855 35.1172C70.0527 35.1172 69.5098 35.041 69.0566 34.8887C68.6074 34.7363 68.2383 34.5156 67.9492 34.2266C67.6641 33.9336 67.4551 33.5762 67.3223 33.1543C67.1895 32.7285 67.123 32.2441 67.123 31.7012V28.0801ZM78.8184 37.8242H77.084V28.0859H78.8184V28.7363C78.9707 28.6309 79.1504 28.5312 79.3574 28.4375C79.5645 28.3438 79.7871 28.2617 80.0254 28.1914C80.2637 28.1211 80.5098 28.0664 80.7637 28.0273C81.0176 27.9844 81.2715 27.9629 81.5254 27.9629C82.1113 27.9629 82.6484 28.0488 83.1367 28.2207C83.6289 28.3926 84.0508 28.6348 84.4023 28.9473C84.7539 29.2598 85.0273 29.6348 85.2227 30.0723C85.4219 30.5059 85.5215 30.9863 85.5215 31.5137C85.5215 32.0645 85.418 32.5625 85.2109 33.0078C85.0039 33.4492 84.7168 33.8281 84.3496 34.1445C83.9863 34.457 83.5527 34.6992 83.0488 34.8711C82.5488 35.0391 82.0059 35.123 81.4199 35.123C81.1699 35.123 80.9219 35.1074 80.6758 35.0762C80.4336 35.0449 80.1992 35.002 79.9727 34.9473C79.75 34.8926 79.5391 34.8281 79.3398 34.7539C79.1445 34.6758 78.9707 34.5918 78.8184 34.502V37.8242ZM78.8184 32.8262C78.9941 32.9668 79.1797 33.0859 79.375 33.1836C79.5703 33.2812 79.7695 33.3613 79.9727 33.4238C80.1758 33.4863 80.3809 33.5332 80.5879 33.5645C80.7949 33.5918 80.9961 33.6055 81.1914 33.6055C81.5898 33.6055 81.9434 33.5527 82.252 33.4473C82.5645 33.3379 82.8262 33.1895 83.0371 33.002C83.252 32.8145 83.416 32.5938 83.5293 32.3398C83.6426 32.0859 83.6992 31.8105 83.6992 31.5137C83.6992 31.2363 83.6426 30.9746 83.5293 30.7285C83.4199 30.4824 83.2598 30.2676 83.0488 30.084C82.8418 29.8965 82.5898 29.75 82.293 29.6445C82 29.5352 81.6699 29.4805 81.3027 29.4805C81.0684 29.4805 80.834 29.5039 80.5996 29.5508C80.3652 29.5938 80.1387 29.6562 79.9199 29.7383C79.7051 29.8203 79.502 29.9199 79.3105 30.0371C79.123 30.1543 78.959 30.2852 78.8184 30.4297V32.8262ZM87.1621 28.0859H88.8965V29.082C89.2793 28.7969 89.6836 28.5508 90.1094 28.3438C90.5352 28.1367 90.959 27.9785 91.3809 27.8691L91.8906 29.457C91.2227 29.5234 90.6348 29.6738 90.127 29.9082C89.623 30.1387 89.2129 30.4648 88.8965 30.8867V35H87.1621V28.0859ZM92.8574 31.5195C92.8574 31.0508 92.9531 30.6035 93.1445 30.1777C93.3359 29.748 93.6113 29.3691 93.9707 29.041C94.3301 28.7129 94.7695 28.4512 95.2891 28.2559C95.8125 28.0605 96.4062 27.9629 97.0703 27.9629C97.7305 27.9629 98.3242 28.0625 98.8516 28.2617C99.3828 28.457 99.832 28.7266 100.199 29.0703C100.57 29.4141 100.854 29.8184 101.049 30.2832C101.248 30.748 101.348 31.2461 101.348 31.7773C101.348 31.8438 101.346 31.916 101.342 31.9941C101.342 32.0684 101.338 32.1367 101.33 32.1992H94.791C94.8652 32.4062 94.9844 32.5957 95.1484 32.7676C95.3164 32.9395 95.5254 33.0879 95.7754 33.2129C96.0254 33.3379 96.3145 33.4355 96.6426 33.5059C96.9707 33.5723 97.334 33.6055 97.7324 33.6055C98.1309 33.6055 98.5273 33.5645 98.9219 33.4824C99.3164 33.3965 99.6934 33.2891 100.053 33.1602L100.639 34.4844C100.412 34.5898 100.182 34.6836 99.9473 34.7656C99.7168 34.8438 99.4746 34.9102 99.2207 34.9648C98.9707 35.0156 98.707 35.0547 98.4297 35.082C98.1562 35.1094 97.8672 35.123 97.5625 35.123C96.7852 35.123 96.1035 35.0293 95.5176 34.8418C94.9316 34.6543 94.4414 34.3984 94.0469 34.0742C93.6523 33.75 93.3555 33.3691 93.1562 32.9316C92.957 32.4941 92.8574 32.0234 92.8574 31.5195ZM99.5078 30.8457C99.4453 30.6543 99.3477 30.4766 99.2148 30.3125C99.0859 30.1445 98.9238 30 98.7285 29.8789C98.5332 29.7539 98.3066 29.6562 98.0488 29.5859C97.791 29.5156 97.5078 29.4805 97.1992 29.4805C96.8711 29.4805 96.5723 29.5176 96.3027 29.5918C96.0332 29.666 95.7969 29.7656 95.5938 29.8906C95.3906 30.0156 95.2207 30.1602 95.084 30.3242C94.9512 30.4883 94.8535 30.6621 94.791 30.8457H99.5078ZM103.264 28.0859H104.998V28.6719C105.432 28.4062 105.854 28.2227 106.264 28.1211C106.678 28.0156 107.082 27.9629 107.477 27.9629C108.027 27.9629 108.533 28.0508 108.994 28.2266C109.455 28.4023 109.85 28.668 110.178 29.0234C110.432 28.8281 110.682 28.6641 110.928 28.5312C111.174 28.3945 111.42 28.2852 111.666 28.2031C111.912 28.1172 112.162 28.0566 112.416 28.0215C112.67 27.9824 112.932 27.9629 113.201 27.9629C113.768 27.9629 114.281 28.041 114.742 28.1973C115.203 28.3496 115.596 28.5781 115.92 28.8828C116.248 29.1875 116.5 29.5684 116.676 30.0254C116.855 30.4785 116.945 31.0039 116.945 31.6016V35H115.217V31.8828C115.217 31.5039 115.162 31.166 115.053 30.8691C114.947 30.5684 114.797 30.3164 114.602 30.1133C114.41 29.9062 114.18 29.75 113.91 29.6445C113.645 29.5352 113.352 29.4805 113.031 29.4805C112.855 29.4805 112.676 29.498 112.492 29.5332C112.309 29.5645 112.129 29.6152 111.953 29.6855C111.781 29.7559 111.619 29.8457 111.467 29.9551C111.314 30.0605 111.182 30.1855 111.068 30.3301V35H109.34V31.8828C109.34 31.5039 109.285 31.166 109.176 30.8691C109.07 30.5684 108.92 30.3164 108.725 30.1133C108.533 29.9062 108.301 29.75 108.027 29.6445C107.758 29.5352 107.461 29.4805 107.137 29.4805C106.938 29.4805 106.736 29.502 106.533 29.5449C106.334 29.584 106.141 29.6406 105.953 29.7148C105.77 29.7891 105.596 29.8789 105.432 29.9844C105.271 30.0898 105.127 30.209 104.998 30.3418V35H103.264V28.0859ZM118.803 31.5195C118.803 31.0508 118.898 30.6035 119.09 30.1777C119.281 29.748 119.557 29.3691 119.916 29.041C120.275 28.7129 120.715 28.4512 121.234 28.2559C121.758 28.0605 122.352 27.9629 123.016 27.9629C123.676 27.9629 124.27 28.0625 124.797 28.2617C125.328 28.457 125.777 28.7266 126.145 29.0703C126.516 29.4141 126.799 29.8184 126.994 30.2832C127.193 30.748 127.293 31.2461 127.293 31.7773C127.293 31.8438 127.291 31.916 127.287 31.9941C127.287 32.0684 127.283 32.1367 127.275 32.1992H120.736C120.811 32.4062 120.93 32.5957 121.094 32.7676C121.262 32.9395 121.471 33.0879 121.721 33.2129C121.971 33.3379 122.26 33.4355 122.588 33.5059C122.916 33.5723 123.279 33.6055 123.678 33.6055C124.076 33.6055 124.473 33.5645 124.867 33.4824C125.262 33.3965 125.639 33.2891 125.998 33.1602L126.584 34.4844C126.357 34.5898 126.127 34.6836 125.893 34.7656C125.662 34.8438 125.42 34.9102 125.166 34.9648C124.916 35.0156 124.652 35.0547 124.375 35.082C124.102 35.1094 123.812 35.123 123.508 35.123C122.73 35.123 122.049 35.0293 121.463 34.8418C120.877 34.6543 120.387 34.3984 119.992 34.0742C119.598 33.75 119.301 33.3691 119.102 32.9316C118.902 32.4941 118.803 32.0234 118.803 31.5195ZM125.453 30.8457C125.391 30.6543 125.293 30.4766 125.16 30.3125C125.031 30.1445 124.869 30 124.674 29.8789C124.479 29.7539 124.252 29.6562 123.994 29.5859C123.736 29.5156 123.453 29.4805 123.145 29.4805C122.816 29.4805 122.518 29.5176 122.248 29.5918C121.979 29.666 121.742 29.7656 121.539 29.8906C121.336 30.0156 121.166 30.1602 121.029 30.3242C120.896 30.4883 120.799 30.6621 120.736 30.8457H125.453Z" fill="white"/>
    <path opacity="0.5" d="M260.74 35V28H263.04C263.587 28 264.037 28.09 264.39 28.27C264.743 28.45 265.003 28.6933 265.17 29C265.343 29.3067 265.43 29.6533 265.43 30.04C265.43 30.42 265.347 30.7633 265.18 31.07C265.013 31.3767 264.753 31.6233 264.4 31.81C264.047 31.99 263.593 32.08 263.04 32.08H261.58V35H260.74ZM261.58 31.37H263.02C263.58 31.37 263.977 31.2533 264.21 31.02C264.45 30.78 264.57 30.4533 264.57 30.04C264.57 29.62 264.45 29.2933 264.21 29.06C263.977 28.82 263.58 28.7 263.02 28.7H261.58V31.37ZM266.481 35V30.04H267.241L267.311 30.99C267.464 30.6633 267.698 30.4033 268.011 30.21C268.324 30.0167 268.711 29.92 269.171 29.92V30.8H268.941C268.648 30.8 268.378 30.8533 268.131 30.96C267.884 31.06 267.688 31.2333 267.541 31.48C267.394 31.7267 267.321 32.0667 267.321 32.5V35H266.481ZM272.158 35.12C271.685 35.12 271.265 35.0133 270.898 34.8C270.532 34.58 270.242 34.2767 270.028 33.89C269.822 33.5033 269.718 33.0467 269.718 32.52C269.718 32 269.822 31.5467 270.028 31.16C270.235 30.7667 270.522 30.4633 270.888 30.25C271.262 30.03 271.692 29.92 272.178 29.92C272.658 29.92 273.072 30.03 273.418 30.25C273.772 30.4633 274.042 30.7467 274.228 31.1C274.415 31.4533 274.508 31.8333 274.508 32.24C274.508 32.3133 274.505 32.3867 274.498 32.46C274.498 32.5333 274.498 32.6167 274.498 32.71H270.548C270.568 33.09 270.655 33.4067 270.808 33.66C270.968 33.9067 271.165 34.0933 271.398 34.22C271.638 34.3467 271.892 34.41 272.158 34.41C272.505 34.41 272.795 34.33 273.028 34.17C273.262 34.01 273.432 33.7933 273.538 33.52H274.368C274.235 33.98 273.978 34.3633 273.598 34.67C273.225 34.97 272.745 35.12 272.158 35.12ZM272.158 30.63C271.758 30.63 271.402 30.7533 271.088 31C270.782 31.24 270.605 31.5933 270.558 32.06H273.678C273.658 31.6133 273.505 31.2633 273.218 31.01C272.932 30.7567 272.578 30.63 272.158 30.63ZM275.622 35V30.04H276.382L276.442 30.76C276.602 30.4933 276.815 30.2867 277.082 30.14C277.348 29.9933 277.648 29.92 277.982 29.92C278.375 29.92 278.712 30 278.992 30.16C279.278 30.32 279.498 30.5633 279.652 30.89C279.825 30.59 280.062 30.3533 280.362 30.18C280.668 30.0067 280.998 29.92 281.352 29.92C281.945 29.92 282.418 30.1 282.772 30.46C283.125 30.8133 283.302 31.36 283.302 32.1V35H282.472V32.19C282.472 31.6767 282.368 31.29 282.162 31.03C281.955 30.77 281.658 30.64 281.272 30.64C280.872 30.64 280.538 30.7967 280.272 31.11C280.012 31.4167 279.882 31.8567 279.882 32.43V35H279.042V32.19C279.042 31.6767 278.938 31.29 278.732 31.03C278.525 30.77 278.228 30.64 277.842 30.64C277.448 30.64 277.118 30.7967 276.852 31.11C276.592 31.4167 276.462 31.8567 276.462 32.43V35H275.622ZM285.077 28.94C284.91 28.94 284.77 28.8867 284.657 28.78C284.55 28.6667 284.497 28.5267 284.497 28.36C284.497 28.2 284.55 28.0667 284.657 27.96C284.77 27.8533 284.91 27.8 285.077 27.8C285.237 27.8 285.374 27.8533 285.487 27.96C285.6 28.0667 285.657 28.2 285.657 28.36C285.657 28.5267 285.6 28.6667 285.487 28.78C285.374 28.8867 285.237 28.94 285.077 28.94ZM284.657 35V30.04H285.497V35H284.657ZM288.77 35.12C288.183 35.12 287.716 34.9433 287.37 34.59C287.023 34.23 286.85 33.68 286.85 32.94V30.04H287.69V32.85C287.69 33.8833 288.113 34.4 288.96 34.4C289.393 34.4 289.75 34.2467 290.03 33.94C290.316 33.6267 290.46 33.1833 290.46 32.61V30.04H291.3V35H290.54L290.48 34.11C290.326 34.4233 290.096 34.67 289.79 34.85C289.49 35.03 289.15 35.12 288.77 35.12ZM292.682 35V30.04H293.442L293.502 30.76C293.662 30.4933 293.876 30.2867 294.142 30.14C294.409 29.9933 294.709 29.92 295.042 29.92C295.436 29.92 295.772 30 296.052 30.16C296.339 30.32 296.559 30.5633 296.712 30.89C296.886 30.59 297.122 30.3533 297.422 30.18C297.729 30.0067 298.059 29.92 298.412 29.92C299.006 29.92 299.479 30.1 299.832 30.46C300.186 30.8133 300.362 31.36 300.362 32.1V35H299.532V32.19C299.532 31.6767 299.429 31.29 299.222 31.03C299.016 30.77 298.719 30.64 298.332 30.64C297.932 30.64 297.599 30.7967 297.332 31.11C297.072 31.4167 296.942 31.8567 296.942 32.43V35H296.102V32.19C296.102 31.6767 295.999 31.29 295.792 31.03C295.586 30.77 295.289 30.64 294.902 30.64C294.509 30.64 294.179 30.7967 293.912 31.11C293.652 31.4167 293.522 31.8567 293.522 32.43V35H292.682Z" fill="white"/>
    <path d="M267 175C274.732 175 281 168.732 281 161C281 153.268 274.732 147 267 147C259.268 147 253 153.268 253 161C253 168.732 259.268 175 267 175Z" fill="white" fill-opacity="0.7"/>
    <path d="M287 175C294.732 175 301 168.732 301 161C301 153.268 294.732 147 287 147C279.268 147 273 153.268 273 161C273 168.732 279.268 175 287 175Z" fill="white" fill-opacity="0.5"/>
    <defs>
        <radialGradient id="paint0_radial_15_92" cx="0" cy="0" r="1" gradientUnits="userSpaceOnUse" gradientTransform="translate(73 226.5) rotate(79.9679) scale(206.66 288.948)">
            <stop stop-color="#FF8038"/>
            <stop offset="1" stop-color="#A52298"/>
        </radialGradient>
        <linearGradient id="paint1_linear_15_92" x1="57" y1="98.2369" x2="19.65" y2="125.287" gradientUnits="userSpaceOnUse">
            <stop stop-color="#CDCDCD"/>
            <stop offset="0.447917" stop-color="#E8E8E8"/>
            <stop offset="1" stop-color="#B4B4B4"/>
        </linearGradient>
        <linearGradient id="paint2_linear_15_92" x1="57" y1="98.2369" x2="19.65" y2="125.287" gradientUnits="userSpaceOnUse">
            <stop stop-color="#CDCDCD"/>
            <stop offset="0.447917" stop-color="#E8E8E8"/>
            <stop offset="1" stop-color="#B4B4B4"/>
        </linearGradient>
    </defs>
</svg>

