<svg width="319" height="191" viewBox="0 0 319 191" fill="none" xmlns="http://www.w3.org/2000/svg">
<rect y="191" width="191" height="319" rx="11" transform="rotate(-90 0 191)" fill="url(#paint0_radial_15_25)"/>
<mask id="mask0_15_25" style="mask-type:alpha" maskUnits="userSpaceOnUse" x="18" y="96" width="42" height="30">
<rect x="18" y="96" width="42" height="29.8251" rx="3" fill="url(#paint1_linear_15_25)"/>
</mask>
<g mask="url(#mask0_15_25)">
<rect x="18" y="96" width="42" height="29.8251" rx="3" fill="url(#paint2_linear_15_25)"/>
<path fill-rule="evenodd" clip-rule="evenodd" d="M27.6974 105.22H18V104.921H27.8026L31.65 107.981V116.317L28.5621 119.386H18V119.088H28.4379L31.35 116.193V108.125L27.6974 105.22Z" fill="#868686"/>
<path fill-rule="evenodd" clip-rule="evenodd" d="M49.569 101.491H60.75V101.193H49.431L44.85 106.507V116.31L49.431 121.623H60.75V121.325H49.569L45.15 116.2V106.617L49.569 101.491Z" fill="#868686"/>
<path fill-rule="evenodd" clip-rule="evenodd" d="M37.7804 100.545L30 94.7809L30.18 94.5087L38.0943 100.372V106.107H45V106.439H37.7804V100.545Z" fill="#868686"/>
<path fill-rule="evenodd" clip-rule="evenodd" d="M31.5 116.106H38.4V121.549L32.34 126.067L32.16 125.829L38.1 121.4V116.404H31.5V116.106Z" fill="#868686"/>
<path fill-rule="evenodd" clip-rule="evenodd" d="M45 116.106H38.1V121.549L44.16 126.067L44.34 125.829L38.4 121.4V116.404H45V116.106Z" fill="#868686"/>
</g>
<rect x="18.25" y="96.25" width="41.5" height="29.3251" rx="2.75" stroke="white" stroke-width="0.5"/>
<path d="M17.2949 25.8418H19.1523V28.2324H24.8477V25.8418H26.7109V35H24.8477V29.8203H19.1523V35H17.2949V25.8418ZM29.3125 25.8418H32.6699C33.6504 25.8418 34.502 25.9473 35.2246 26.1582C35.9473 26.3691 36.5449 26.6719 37.0176 27.0664C37.4941 27.457 37.8477 27.9336 38.0781 28.4961C38.3125 29.0547 38.4297 29.6836 38.4297 30.3828C38.4297 31.0469 38.3145 31.6621 38.084 32.2285C37.8535 32.791 37.502 33.2793 37.0293 33.6934C36.5566 34.1035 35.959 34.4258 35.2363 34.6602C34.5137 34.8906 33.6621 35.0059 32.6816 35.0059L29.3125 35V25.8418ZM33.127 33.3945C33.6816 33.3945 34.168 33.3242 34.5859 33.1836C35.0039 33.0391 35.3516 32.8359 35.6289 32.5742C35.9102 32.3125 36.1211 31.9961 36.2617 31.625C36.4023 31.2539 36.4727 30.8398 36.4727 30.3828C36.4727 29.9336 36.4023 29.5293 36.2617 29.1699C36.1211 28.8066 35.9102 28.5 35.6289 28.25C35.3516 27.9961 35.0039 27.8008 34.5859 27.6641C34.168 27.5273 33.6816 27.459 33.127 27.459H31.1699V33.3945H33.127ZM40.293 25.8418H48.4844V27.4707H42.1504V29.8672H47.5293V31.3965H42.1504V35H40.293V25.8418ZM49.7207 30.3652C49.7207 29.7129 49.8438 29.1055 50.0898 28.543C50.3359 27.9766 50.6914 27.4863 51.1562 27.0723C51.625 26.6543 52.1953 26.3262 52.8672 26.0879C53.543 25.8496 54.3066 25.7305 55.1582 25.7305C55.9043 25.7305 56.5879 25.8066 57.209 25.959C57.834 26.1074 58.4141 26.3359 58.9492 26.6445L58.0938 28.0508C57.9336 27.9453 57.748 27.8516 57.5371 27.7695C57.3301 27.6875 57.1074 27.6191 56.8691 27.5645C56.6348 27.5059 56.3906 27.4609 56.1367 27.4297C55.8867 27.3984 55.6387 27.3828 55.3926 27.3828C54.7988 27.3828 54.2695 27.457 53.8047 27.6055C53.3398 27.75 52.9473 27.9551 52.627 28.2207C52.3105 28.4824 52.0684 28.7969 51.9004 29.1641C51.7363 29.5273 51.6543 29.9277 51.6543 30.3652C51.6543 30.8184 51.7402 31.2344 51.9121 31.6133C52.084 31.9922 52.332 32.3203 52.6562 32.5977C52.9844 32.8711 53.3828 33.0859 53.8516 33.2422C54.3242 33.3945 54.8574 33.4707 55.4512 33.4707C55.7207 33.4707 55.9883 33.4512 56.2539 33.4121C56.5195 33.373 56.7754 33.3203 57.0215 33.2539C57.2715 33.1836 57.5117 33.1016 57.7422 33.0078C57.9727 32.9102 58.1875 32.8047 58.3867 32.6914L59.2422 34.0977C58.7422 34.418 58.1641 34.6699 57.5078 34.8535C56.8516 35.0332 56.1543 35.123 55.416 35.123C54.4746 35.123 53.6484 35.002 52.9375 34.7598C52.2266 34.5137 51.6328 34.1777 51.1562 33.752C50.6797 33.3223 50.3203 32.8184 50.0781 32.2402C49.8398 31.6582 49.7207 31.0332 49.7207 30.3652ZM65.2656 25.8418H67.123L72.8301 28.8301V25.8418H74.6875V35H72.8301V30.7988L67.123 27.8281V35H65.2656V25.8418ZM76.7324 31.5195C76.7324 31.0508 76.8281 30.6035 77.0195 30.1777C77.2109 29.748 77.4863 29.3691 77.8457 29.041C78.2051 28.7129 78.6445 28.4512 79.1641 28.2559C79.6875 28.0605 80.2812 27.9629 80.9453 27.9629C81.6055 27.9629 82.1992 28.0625 82.7266 28.2617C83.2578 28.457 83.707 28.7266 84.0742 29.0703C84.4453 29.4141 84.7285 29.8184 84.9238 30.2832C85.123 30.748 85.2227 31.2461 85.2227 31.7773C85.2227 31.8438 85.2207 31.916 85.2168 31.9941C85.2168 32.0684 85.2129 32.1367 85.2051 32.1992H78.666C78.7402 32.4062 78.8594 32.5957 79.0234 32.7676C79.1914 32.9395 79.4004 33.0879 79.6504 33.2129C79.9004 33.3379 80.1895 33.4355 80.5176 33.5059C80.8457 33.5723 81.209 33.6055 81.6074 33.6055C82.0059 33.6055 82.4023 33.5645 82.7969 33.4824C83.1914 33.3965 83.5684 33.2891 83.9277 33.1602L84.5137 34.4844C84.2871 34.5898 84.0566 34.6836 83.8223 34.7656C83.5918 34.8438 83.3496 34.9102 83.0957 34.9648C82.8457 35.0156 82.582 35.0547 82.3047 35.082C82.0312 35.1094 81.7422 35.123 81.4375 35.123C80.6602 35.123 79.9785 35.0293 79.3926 34.8418C78.8066 34.6543 78.3164 34.3984 77.9219 34.0742C77.5273 33.75 77.2305 33.3691 77.0312 32.9316C76.832 32.4941 76.7324 32.0234 76.7324 31.5195ZM83.3828 30.8457C83.3203 30.6543 83.2227 30.4766 83.0898 30.3125C82.9609 30.1445 82.7988 30 82.6035 29.8789C82.4082 29.7539 82.1816 29.6562 81.9238 29.5859C81.666 29.5156 81.3828 29.4805 81.0742 29.4805C80.7461 29.4805 80.4473 29.5176 80.1777 29.5918C79.9082 29.666 79.6719 29.7656 79.4688 29.8906C79.2656 30.0156 79.0957 30.1602 78.959 30.3242C78.8262 30.4883 78.7285 30.6621 78.666 30.8457H83.3828ZM86.6758 31.543C86.6758 31.0469 86.7754 30.582 86.9746 30.1484C87.1777 29.7148 87.4648 29.3359 87.8359 29.0117C88.2109 28.6875 88.6621 28.4316 89.1895 28.2441C89.7207 28.0566 90.3164 27.9629 90.9766 27.9629C91.6367 27.9629 92.2305 28.0566 92.7578 28.2441C93.2891 28.4316 93.7402 28.6875 94.1113 29.0117C94.4863 29.3359 94.7734 29.7148 94.9727 30.1484C95.1758 30.582 95.2773 31.0469 95.2773 31.543C95.2773 32.0391 95.1758 32.5039 94.9727 32.9375C94.7734 33.3711 94.4863 33.75 94.1113 34.0742C93.7402 34.3984 93.2891 34.6543 92.7578 34.8418C92.2305 35.0293 91.6367 35.123 90.9766 35.123C90.3164 35.123 89.7207 35.0293 89.1895 34.8418C88.6621 34.6543 88.2109 34.3984 87.8359 34.0742C87.4648 33.75 87.1777 33.3711 86.9746 32.9375C86.7754 32.5039 86.6758 32.0391 86.6758 31.543ZM88.498 31.543C88.498 31.8203 88.5527 32.084 88.6621 32.334C88.7754 32.5801 88.9375 32.7988 89.1484 32.9902C89.3633 33.1777 89.623 33.3281 89.9277 33.4414C90.2363 33.5508 90.5859 33.6055 90.9766 33.6055C91.3672 33.6055 91.7148 33.5508 92.0195 33.4414C92.3281 33.3281 92.5879 33.1777 92.7988 32.9902C93.0137 32.7988 93.1758 32.5801 93.2852 32.334C93.3984 32.084 93.4551 31.8203 93.4551 31.543C93.4551 31.2656 93.3984 31.002 93.2852 30.752C93.1758 30.502 93.0137 30.2832 92.7988 30.0957C92.5879 29.9043 92.3281 29.7539 92.0195 29.6445C91.7148 29.5312 91.3672 29.4746 90.9766 29.4746C90.5859 29.4746 90.2363 29.5312 89.9277 29.6445C89.623 29.7539 89.3633 29.9043 89.1484 30.0957C88.9375 30.2832 88.7754 30.502 88.6621 30.752C88.5527 31.002 88.498 31.2656 88.498 31.543Z" fill="white"/>
<path opacity="0.5" d="M227.97 35.12C227.457 35.12 227.01 35.0267 226.63 34.84C226.25 34.6533 225.957 34.3933 225.75 34.06C225.543 33.7267 225.44 33.34 225.44 32.9H226.32C226.32 33.1733 226.383 33.4267 226.51 33.66C226.637 33.8867 226.82 34.07 227.06 34.21C227.307 34.3433 227.61 34.41 227.97 34.41C228.443 34.41 228.81 34.2967 229.07 34.07C229.33 33.8433 229.46 33.56 229.46 33.22C229.46 32.94 229.4 32.7167 229.28 32.55C229.16 32.3767 228.997 32.2367 228.79 32.13C228.59 32.0233 228.357 31.93 228.09 31.85C227.83 31.77 227.557 31.68 227.27 31.58C226.73 31.3933 226.33 31.1633 226.07 30.89C225.81 30.61 225.68 30.2467 225.68 29.8C225.673 29.4267 225.76 29.0967 225.94 28.81C226.12 28.5167 226.373 28.29 226.7 28.13C227.033 27.9633 227.427 27.88 227.88 27.88C228.327 27.88 228.713 27.9633 229.04 28.13C229.373 28.2967 229.63 28.5267 229.81 28.82C229.997 29.1133 230.093 29.4467 230.1 29.82H229.22C229.22 29.6267 229.17 29.4367 229.07 29.25C228.97 29.0567 228.817 28.9 228.61 28.78C228.41 28.66 228.157 28.6 227.85 28.6C227.47 28.5933 227.157 28.69 226.91 28.89C226.67 29.09 226.55 29.3667 226.55 29.72C226.55 30.02 226.633 30.25 226.8 30.41C226.973 30.57 227.213 30.7033 227.52 30.81C227.827 30.91 228.18 31.0267 228.58 31.16C228.913 31.28 229.213 31.42 229.48 31.58C229.747 31.74 229.953 31.9467 230.1 32.2C230.253 32.4533 230.33 32.7767 230.33 33.17C230.33 33.5033 230.243 33.82 230.07 34.12C229.897 34.4133 229.633 34.6533 229.28 34.84C228.933 35.0267 228.497 35.12 227.97 35.12ZM233.281 35.12C232.695 35.12 232.228 34.9433 231.881 34.59C231.535 34.23 231.361 33.68 231.361 32.94V30.04H232.201V32.85C232.201 33.8833 232.625 34.4 233.471 34.4C233.905 34.4 234.261 34.2467 234.541 33.94C234.828 33.6267 234.971 33.1833 234.971 32.61V30.04H235.811V35H235.051L234.991 34.11C234.838 34.4233 234.608 34.67 234.301 34.85C234.001 35.03 233.661 35.12 233.281 35.12ZM237.194 37.2V30.04H237.954L238.034 30.86C238.194 30.62 238.421 30.4033 238.714 30.21C239.014 30.0167 239.394 29.92 239.854 29.92C240.347 29.92 240.777 30.0333 241.144 30.26C241.511 30.4867 241.794 30.7967 241.994 31.19C242.201 31.5833 242.304 32.03 242.304 32.53C242.304 33.03 242.201 33.4767 241.994 33.87C241.794 34.2567 241.507 34.5633 241.134 34.79C240.767 35.01 240.337 35.12 239.844 35.12C239.437 35.12 239.074 35.0367 238.754 34.87C238.441 34.7033 238.201 34.47 238.034 34.17V37.2H237.194ZM239.754 34.39C240.087 34.39 240.381 34.3133 240.634 34.16C240.887 34 241.087 33.78 241.234 33.5C241.381 33.22 241.454 32.8933 241.454 32.52C241.454 32.1467 241.381 31.82 241.234 31.54C241.087 31.26 240.887 31.0433 240.634 30.89C240.381 30.73 240.087 30.65 239.754 30.65C239.421 30.65 239.127 30.73 238.874 30.89C238.621 31.0433 238.421 31.26 238.274 31.54C238.127 31.82 238.054 32.1467 238.054 32.52C238.054 32.8933 238.127 33.22 238.274 33.5C238.421 33.78 238.621 34 238.874 34.16C239.127 34.3133 239.421 34.39 239.754 34.39ZM245.703 35.12C245.23 35.12 244.81 35.0133 244.443 34.8C244.077 34.58 243.787 34.2767 243.573 33.89C243.367 33.5033 243.263 33.0467 243.263 32.52C243.263 32 243.367 31.5467 243.573 31.16C243.78 30.7667 244.067 30.4633 244.433 30.25C244.807 30.03 245.237 29.92 245.723 29.92C246.203 29.92 246.617 30.03 246.963 30.25C247.317 30.4633 247.587 30.7467 247.773 31.1C247.96 31.4533 248.053 31.8333 248.053 32.24C248.053 32.3133 248.05 32.3867 248.043 32.46C248.043 32.5333 248.043 32.6167 248.043 32.71H244.093C244.113 33.09 244.2 33.4067 244.353 33.66C244.513 33.9067 244.71 34.0933 244.943 34.22C245.183 34.3467 245.437 34.41 245.703 34.41C246.05 34.41 246.34 34.33 246.573 34.17C246.807 34.01 246.977 33.7933 247.083 33.52H247.913C247.78 33.98 247.523 34.3633 247.143 34.67C246.77 34.97 246.29 35.12 245.703 35.12ZM245.703 30.63C245.303 30.63 244.947 30.7533 244.633 31C244.327 31.24 244.15 31.5933 244.103 32.06H247.223C247.203 31.6133 247.05 31.2633 246.763 31.01C246.477 30.7567 246.123 30.63 245.703 30.63ZM249.167 35V30.04H249.927L249.997 30.99C250.15 30.6633 250.383 30.4033 250.697 30.21C251.01 30.0167 251.397 29.92 251.857 29.92V30.8H251.627C251.333 30.8 251.063 30.8533 250.817 30.96C250.57 31.06 250.373 31.2333 250.227 31.48C250.08 31.7267 250.007 32.0667 250.007 32.5V35H249.167ZM258.566 35.12C257.879 35.12 257.286 34.97 256.786 34.67C256.293 34.3633 255.909 33.94 255.636 33.4C255.363 32.8533 255.226 32.22 255.226 31.5C255.226 30.7867 255.363 30.16 255.636 29.62C255.909 29.0733 256.293 28.6467 256.786 28.34C257.286 28.0333 257.879 27.88 258.566 27.88C259.366 27.88 260.016 28.0733 260.516 28.46C261.023 28.84 261.346 29.3733 261.486 30.06H260.556C260.449 29.6267 260.229 29.28 259.896 29.02C259.569 28.7533 259.126 28.62 258.566 28.62C258.066 28.62 257.629 28.7367 257.256 28.97C256.883 29.1967 256.593 29.5267 256.386 29.96C256.186 30.3867 256.086 30.9 256.086 31.5C256.086 32.1 256.186 32.6167 256.386 33.05C256.593 33.4767 256.883 33.8067 257.256 34.04C257.629 34.2667 258.066 34.38 258.566 34.38C259.126 34.38 259.569 34.2533 259.896 34C260.229 33.74 260.449 33.3967 260.556 32.97H261.486C261.346 33.6433 261.023 34.17 260.516 34.55C260.016 34.93 259.366 35.12 258.566 35.12ZM264.293 35.12C263.88 35.12 263.536 35.05 263.263 34.91C262.99 34.77 262.786 34.5833 262.653 34.35C262.52 34.1167 262.453 33.8633 262.453 33.59C262.453 33.0833 262.646 32.6933 263.033 32.42C263.42 32.1467 263.946 32.01 264.613 32.01H265.953V31.95C265.953 31.5167 265.84 31.19 265.613 30.97C265.386 30.7433 265.083 30.63 264.703 30.63C264.376 30.63 264.093 30.7133 263.853 30.88C263.62 31.04 263.473 31.2767 263.413 31.59H262.553C262.586 31.23 262.706 30.9267 262.913 30.68C263.126 30.4333 263.39 30.2467 263.703 30.12C264.016 29.9867 264.35 29.92 264.703 29.92C265.396 29.92 265.916 30.1067 266.263 30.48C266.616 30.8467 266.793 31.3367 266.793 31.95V35H266.043L265.993 34.11C265.853 34.39 265.646 34.63 265.373 34.83C265.106 35.0233 264.746 35.12 264.293 35.12ZM264.423 34.41C264.743 34.41 265.016 34.3267 265.243 34.16C265.476 33.9933 265.653 33.7767 265.773 33.51C265.893 33.2433 265.953 32.9633 265.953 32.67V32.66H264.683C264.19 32.66 263.84 32.7467 263.633 32.92C263.433 33.0867 263.333 33.2967 263.333 33.55C263.333 33.81 263.426 34.02 263.613 34.18C263.806 34.3333 264.076 34.41 264.423 34.41ZM269.953 35.12C269.36 35.12 268.867 34.97 268.473 34.67C268.08 34.37 267.85 33.9633 267.783 33.45H268.643C268.697 33.71 268.833 33.9367 269.053 34.13C269.28 34.3167 269.583 34.41 269.963 34.41C270.317 34.41 270.577 34.3367 270.743 34.19C270.91 34.0367 270.993 33.8567 270.993 33.65C270.993 33.35 270.883 33.15 270.663 33.05C270.45 32.95 270.147 32.86 269.753 32.78C269.487 32.7267 269.22 32.65 268.953 32.55C268.687 32.45 268.463 32.31 268.283 32.13C268.103 31.9433 268.013 31.7 268.013 31.4C268.013 30.9667 268.173 30.6133 268.493 30.34C268.82 30.06 269.26 29.92 269.813 29.92C270.34 29.92 270.77 30.0533 271.103 30.32C271.443 30.58 271.64 30.9533 271.693 31.44H270.863C270.83 31.1867 270.72 30.99 270.533 30.85C270.353 30.7033 270.11 30.63 269.803 30.63C269.503 30.63 269.27 30.6933 269.103 30.82C268.943 30.9467 268.863 31.1133 268.863 31.32C268.863 31.52 268.967 31.6767 269.173 31.79C269.387 31.9033 269.673 32 270.033 32.08C270.34 32.1467 270.63 32.23 270.903 32.33C271.183 32.4233 271.41 32.5667 271.583 32.76C271.763 32.9467 271.853 33.22 271.853 33.58C271.86 34.0267 271.69 34.3967 271.343 34.69C271.003 34.9767 270.54 35.12 269.953 35.12ZM273.053 35V27.8H273.893V30.89C274.06 30.5833 274.297 30.3467 274.603 30.18C274.91 30.0067 275.243 29.92 275.603 29.92C276.177 29.92 276.637 30.1 276.983 30.46C277.33 30.8133 277.503 31.36 277.503 32.1V35H276.673V32.19C276.673 31.1567 276.257 30.64 275.423 30.64C274.99 30.64 274.627 30.7967 274.333 31.11C274.04 31.4167 273.893 31.8567 273.893 32.43V35H273.053ZM281.426 35.12C281.019 35.12 280.656 35.0367 280.336 34.87C280.023 34.7033 279.783 34.47 279.616 34.17L279.536 35H278.776V27.8H279.616V30.86C279.776 30.62 280.003 30.4033 280.296 30.21C280.596 30.0167 280.976 29.92 281.436 29.92C281.929 29.92 282.359 30.0333 282.726 30.26C283.093 30.4867 283.376 30.7967 283.576 31.19C283.783 31.5833 283.886 32.03 283.886 32.53C283.886 33.03 283.783 33.4767 283.576 33.87C283.376 34.2567 283.089 34.5633 282.716 34.79C282.349 35.01 281.919 35.12 281.426 35.12ZM281.336 34.39C281.669 34.39 281.963 34.3133 282.216 34.16C282.469 34 282.669 33.78 282.816 33.5C282.963 33.22 283.036 32.8933 283.036 32.52C283.036 32.1467 282.963 31.82 282.816 31.54C282.669 31.26 282.469 31.0433 282.216 30.89C281.963 30.73 281.669 30.65 281.336 30.65C281.003 30.65 280.709 30.73 280.456 30.89C280.203 31.0433 280.003 31.26 279.856 31.54C279.709 31.82 279.636 32.1467 279.636 32.52C279.636 32.8933 279.709 33.22 279.856 33.5C280.003 33.78 280.203 34 280.456 34.16C280.709 34.3133 281.003 34.39 281.336 34.39ZM286.705 35.12C286.292 35.12 285.949 35.05 285.675 34.91C285.402 34.77 285.199 34.5833 285.065 34.35C284.932 34.1167 284.865 33.8633 284.865 33.59C284.865 33.0833 285.059 32.6933 285.445 32.42C285.832 32.1467 286.359 32.01 287.025 32.01H288.365V31.95C288.365 31.5167 288.252 31.19 288.025 30.97C287.799 30.7433 287.495 30.63 287.115 30.63C286.789 30.63 286.505 30.7133 286.265 30.88C286.032 31.04 285.885 31.2767 285.825 31.59H284.965C284.999 31.23 285.119 30.9267 285.325 30.68C285.539 30.4333 285.802 30.2467 286.115 30.12C286.429 29.9867 286.762 29.92 287.115 29.92C287.809 29.92 288.329 30.1067 288.675 30.48C289.029 30.8467 289.205 31.3367 289.205 31.95V35H288.455L288.405 34.11C288.265 34.39 288.059 34.63 287.785 34.83C287.519 35.0233 287.159 35.12 286.705 35.12ZM286.835 34.41C287.155 34.41 287.429 34.3267 287.655 34.16C287.889 33.9933 288.065 33.7767 288.185 33.51C288.305 33.2433 288.365 32.9633 288.365 32.67V32.66H287.095C286.602 32.66 286.252 32.7467 286.045 32.92C285.845 33.0867 285.745 33.2967 285.745 33.55C285.745 33.81 285.839 34.02 286.025 34.18C286.219 34.3333 286.489 34.41 286.835 34.41ZM292.745 35.12C292.272 35.12 291.845 35.0133 291.465 34.8C291.092 34.58 290.795 34.2767 290.575 33.89C290.362 33.4967 290.255 33.04 290.255 32.52C290.255 32 290.362 31.5467 290.575 31.16C290.795 30.7667 291.092 30.4633 291.465 30.25C291.845 30.03 292.272 29.92 292.745 29.92C293.332 29.92 293.825 30.0733 294.225 30.38C294.632 30.6867 294.889 31.0967 294.995 31.61H294.135C294.069 31.3033 293.905 31.0667 293.645 30.9C293.385 30.7267 293.082 30.64 292.735 30.64C292.455 30.64 292.192 30.71 291.945 30.85C291.699 30.99 291.499 31.2 291.345 31.48C291.192 31.76 291.115 32.1067 291.115 32.52C291.115 32.9333 291.192 33.28 291.345 33.56C291.499 33.84 291.699 34.0533 291.945 34.2C292.192 34.34 292.455 34.41 292.735 34.41C293.082 34.41 293.385 34.3267 293.645 34.16C293.905 33.9867 294.069 33.7433 294.135 33.43H294.995C294.895 33.93 294.642 34.3367 294.235 34.65C293.829 34.9633 293.332 35.12 292.745 35.12ZM296.169 35V27.8H297.009V32.13L299.039 30.04H300.069L297.869 32.28L300.349 35H299.279L297.009 32.43V35H296.169Z" fill="white"/>
<path d="M267 175C274.732 175 281 168.732 281 161C281 153.268 274.732 147 267 147C259.268 147 253 153.268 253 161C253 168.732 259.268 175 267 175Z" fill="white" fill-opacity="0.7"/>
<path d="M287 175C294.732 175 301 168.732 301 161C301 153.268 294.732 147 287 147C279.268 147 273 153.268 273 161C273 168.732 279.268 175 287 175Z" fill="white" fill-opacity="0.5"/>
<defs>
<radialGradient id="paint0_radial_15_25" cx="0" cy="0" r="1" gradientUnits="userSpaceOnUse" gradientTransform="translate(73 226.5) rotate(79.9679) scale(206.66 288.948)">
<stop stop-color="#38FFCF"/>
<stop offset="1" stop-color="#3357D9"/>
</radialGradient>
<linearGradient id="paint1_linear_15_25" x1="57" y1="98.2369" x2="19.65" y2="125.287" gradientUnits="userSpaceOnUse">
<stop stop-color="#CDCDCD"/>
<stop offset="0.447917" stop-color="#E8E8E8"/>
<stop offset="1" stop-color="#B4B4B4"/>
</linearGradient>
<linearGradient id="paint2_linear_15_25" x1="57" y1="98.2369" x2="19.65" y2="125.287" gradientUnits="userSpaceOnUse">
<stop stop-color="#CDCDCD"/>
<stop offset="0.447917" stop-color="#E8E8E8"/>
<stop offset="1" stop-color="#B4B4B4"/>
</linearGradient>
</defs>
</svg>
