<svg width="319" height="191" viewBox="0 0 319 191" fill="none" xmlns="http://www.w3.org/2000/svg">
<rect y="191" width="191" height="319" rx="11" transform="rotate(-90 0 191)" fill="url(#paint0_radial_15_28)"/>
<mask id="mask0_15_28" style="mask-type:alpha" maskUnits="userSpaceOnUse" x="18" y="96" width="42" height="30">
<rect x="18" y="96" width="42" height="29.8251" rx="3" fill="url(#paint1_linear_15_28)"/>
</mask>
<g mask="url(#mask0_15_28)">
<rect x="18" y="96" width="42" height="29.8251" rx="3" fill="url(#paint2_linear_15_28)"/>
<path fill-rule="evenodd" clip-rule="evenodd" d="M27.6974 105.22H18V104.921H27.8026L31.65 107.981V116.317L28.5621 119.386H18V119.088H28.4379L31.35 116.193V108.125L27.6974 105.22Z" fill="#868686"/>
<path fill-rule="evenodd" clip-rule="evenodd" d="M49.569 101.491H60.75V101.193H49.431L44.85 106.507V116.31L49.431 121.623H60.75V121.325H49.569L45.15 116.2V106.617L49.569 101.491Z" fill="#868686"/>
<path fill-rule="evenodd" clip-rule="evenodd" d="M37.7804 100.545L30 94.7809L30.18 94.5088L38.0943 100.372V106.107H45V106.439H37.7804V100.545Z" fill="#868686"/>
<path fill-rule="evenodd" clip-rule="evenodd" d="M31.5 116.106H38.4V121.549L32.34 126.067L32.16 125.829L38.1 121.4V116.404H31.5V116.106Z" fill="#868686"/>
<path fill-rule="evenodd" clip-rule="evenodd" d="M45 116.106H38.1V121.549L44.16 126.067L44.34 125.829L38.4 121.4V116.404H45V116.106Z" fill="#868686"/>
</g>
<rect x="18.25" y="96.25" width="41.5" height="29.3251" rx="2.75" stroke="white" stroke-width="0.5"/>
<path d="M20.4238 25.8418H22.3926L26.8223 35H24.8711L24.1387 33.459H18.7891L18.0801 35H16.123L20.4238 25.8418ZM23.4062 31.9297L21.4258 27.7695L19.498 31.9297H23.4062ZM29.8223 31.543L26.9629 28.0801H29.1777L30.9121 30.1895L32.5586 28.0801H34.7207L32.0312 31.5371L34.8906 35H32.6758L30.8887 32.8379L29.2305 35H27.0684L29.8223 31.543ZM36.9121 27.1426C36.7402 27.1426 36.584 27.1191 36.4434 27.0723C36.3066 27.0215 36.1895 26.9551 36.0918 26.873C35.9941 26.7871 35.918 26.6895 35.8633 26.5801C35.8125 26.4668 35.7871 26.3477 35.7871 26.2227C35.7871 26.0938 35.8125 25.9746 35.8633 25.8652C35.918 25.752 35.9941 25.6543 36.0918 25.5723C36.1895 25.4902 36.3066 25.4258 36.4434 25.3789C36.584 25.3281 36.7402 25.3027 36.9121 25.3027C37.0879 25.3027 37.2441 25.3281 37.3809 25.3789C37.5215 25.4258 37.6406 25.4902 37.7383 25.5723C37.8359 25.6543 37.9102 25.752 37.9609 25.8652C38.0156 25.9746 38.043 26.0938 38.043 26.2227C38.043 26.3477 38.0156 26.4668 37.9609 26.5801C37.9102 26.6895 37.8359 26.7871 37.7383 26.873C37.6406 26.9551 37.5215 27.0215 37.3809 27.0723C37.2441 27.1191 37.0879 27.1426 36.9121 27.1426ZM36.0449 28.0859H37.7793V35H36.0449V28.0859ZM40.2812 32.8789C40.75 33.1602 41.2656 33.3672 41.8281 33.5C42.3906 33.6328 42.9668 33.6992 43.5566 33.6992C43.9551 33.6992 44.2871 33.6719 44.5527 33.6172C44.8184 33.5625 45.0312 33.4922 45.1914 33.4062C45.3516 33.3203 45.4648 33.2227 45.5312 33.1133C45.5977 33.0039 45.6309 32.8926 45.6309 32.7793C45.6309 32.6152 45.5586 32.4746 45.4141 32.3574C45.2734 32.2402 45.0391 32.1816 44.7109 32.1816C44.5586 32.1816 44.3945 32.1914 44.2188 32.2109C44.043 32.2305 43.8574 32.252 43.6621 32.2754C43.4707 32.2949 43.2695 32.3145 43.0586 32.334C42.8516 32.3535 42.6406 32.3633 42.4258 32.3633C41.957 32.3633 41.5566 32.3125 41.2246 32.2109C40.8965 32.1094 40.6289 31.9707 40.4219 31.7949C40.2148 31.6191 40.0645 31.4121 39.9707 31.1738C39.877 30.9316 39.8301 30.6719 39.8301 30.3945C39.8301 30.043 39.9121 29.7188 40.0762 29.4219C40.2402 29.125 40.4746 28.8691 40.7793 28.6543C41.084 28.4355 41.4512 28.2656 41.8809 28.1445C42.3145 28.0234 42.7969 27.9629 43.3281 27.9629C43.6055 27.9629 43.8945 27.9805 44.1953 28.0156C44.5 28.0469 44.7988 28.0898 45.0918 28.1445C45.3848 28.1992 45.666 28.2637 45.9355 28.3379C46.2051 28.4082 46.4434 28.4844 46.6504 28.5664L46.1055 29.9141C45.6641 29.75 45.2227 29.6211 44.7812 29.5273C44.3438 29.4297 43.8926 29.3809 43.4277 29.3809C43.1035 29.3809 42.8281 29.4062 42.6016 29.457C42.3789 29.5039 42.1973 29.5684 42.0566 29.6504C41.916 29.7285 41.8125 29.8203 41.7461 29.9258C41.6836 30.0273 41.6523 30.1348 41.6523 30.248C41.6523 30.3301 41.668 30.4043 41.6992 30.4707C41.7344 30.5371 41.7891 30.5957 41.8633 30.6465C41.9414 30.6934 42.041 30.7305 42.1621 30.7578C42.2871 30.7812 42.4395 30.793 42.6191 30.793C42.7832 30.793 42.957 30.7832 43.1406 30.7637C43.3242 30.7441 43.5156 30.7246 43.7148 30.7051C43.9141 30.6816 44.1191 30.6602 44.3301 30.6406C44.5449 30.6211 44.7637 30.6113 44.9863 30.6113C45.4004 30.6113 45.7617 30.6602 46.0703 30.7578C46.3828 30.8555 46.6406 30.9922 46.8438 31.168C47.0469 31.3438 47.1992 31.5508 47.3008 31.7891C47.4023 32.0273 47.4531 32.2871 47.4531 32.5684C47.4531 32.9316 47.3691 33.2695 47.2012 33.582C47.0332 33.8945 46.7832 34.166 46.4512 34.3965C46.1191 34.623 45.7051 34.8008 45.209 34.9297C44.7168 35.0586 44.1465 35.123 43.498 35.123C43.0996 35.123 42.7148 35.0977 42.3438 35.0469C41.9727 35 41.6191 34.9355 41.2832 34.8535C40.9473 34.7676 40.6309 34.668 40.334 34.5547C40.041 34.4414 39.7734 34.3203 39.5312 34.1914L40.2812 32.8789ZM55.9785 27.4707H52.5977V25.8418H61.2168V27.4707H57.8359V35H55.9785V27.4707ZM63.9004 27.1426C63.7285 27.1426 63.5723 27.1191 63.4316 27.0723C63.2949 27.0215 63.1777 26.9551 63.0801 26.873C62.9824 26.7871 62.9062 26.6895 62.8516 26.5801C62.8008 26.4668 62.7754 26.3477 62.7754 26.2227C62.7754 26.0938 62.8008 25.9746 62.8516 25.8652C62.9062 25.752 62.9824 25.6543 63.0801 25.5723C63.1777 25.4902 63.2949 25.4258 63.4316 25.3789C63.5723 25.3281 63.7285 25.3027 63.9004 25.3027C64.0762 25.3027 64.2324 25.3281 64.3691 25.3789C64.5098 25.4258 64.6289 25.4902 64.7266 25.5723C64.8242 25.6543 64.8984 25.752 64.9492 25.8652C65.0039 25.9746 65.0312 26.0938 65.0312 26.2227C65.0312 26.3477 65.0039 26.4668 64.9492 26.5801C64.8984 26.6895 64.8242 26.7871 64.7266 26.873C64.6289 26.9551 64.5098 27.0215 64.3691 27.0723C64.2324 27.1191 64.0762 27.1426 63.9004 27.1426ZM63.0332 28.0859H64.7676V35H63.0332V28.0859ZM68.0371 29.3867H66.3672V28.0859H68.0371V25.9355H69.7715V28.0859H71.4414V29.3867H69.7715V35H68.0371V29.3867ZM72.6543 32.8203C72.6543 32.4883 72.7266 32.1855 72.8711 31.9121C73.0156 31.6387 73.2324 31.4043 73.5215 31.209C73.8105 31.0098 74.1699 30.8574 74.5996 30.752C75.0332 30.6426 75.5371 30.5879 76.1113 30.5879C76.5371 30.5879 76.9844 30.6191 77.4531 30.6816C77.9258 30.7441 78.4121 30.8398 78.9121 30.9688C78.8926 30.75 78.8262 30.5488 78.7129 30.3652C78.5996 30.1777 78.4414 30.0176 78.2383 29.8848C78.0391 29.748 77.7969 29.6426 77.5117 29.5684C77.2305 29.4941 76.9102 29.457 76.5508 29.457C76.3555 29.457 76.1406 29.4688 75.9062 29.4922C75.6719 29.5156 75.4297 29.5508 75.1797 29.5977C74.9297 29.6445 74.6816 29.7031 74.4355 29.7734C74.1934 29.8438 73.9668 29.9277 73.7559 30.0254L73.2285 28.6016C73.4902 28.5078 73.7695 28.4219 74.0664 28.3438C74.3672 28.2656 74.6738 28.1992 74.9863 28.1445C75.2988 28.0859 75.6113 28.041 75.9238 28.0098C76.2363 27.9785 76.5391 27.9629 76.832 27.9629C78.125 27.9629 79.0859 28.293 79.7148 28.9531C80.3438 29.6133 80.6582 30.625 80.6582 31.9883V35H78.9238V34.3496C78.7441 34.4551 78.5469 34.5547 78.332 34.6484C78.1211 34.7422 77.8906 34.8242 77.6406 34.8945C77.3906 34.9648 77.1211 35.0195 76.832 35.0586C76.5469 35.1016 76.2441 35.123 75.9238 35.123C75.3848 35.123 74.9102 35.0645 74.5 34.9473C74.0938 34.8301 73.7539 34.668 73.4805 34.4609C73.207 34.2539 73 34.0117 72.8594 33.7344C72.7227 33.4531 72.6543 33.1484 72.6543 32.8203ZM74.4824 32.7617C74.4824 32.875 74.5117 32.9844 74.5703 33.0898C74.6289 33.1914 74.7227 33.2832 74.8516 33.3652C74.9805 33.4434 75.1445 33.5078 75.3438 33.5586C75.5469 33.6055 75.791 33.6289 76.0762 33.6289C76.3809 33.6289 76.6758 33.6016 76.9609 33.5469C77.2461 33.4922 77.5117 33.4199 77.7578 33.3301C78.0039 33.2402 78.2266 33.1367 78.4258 33.0195C78.625 32.9023 78.791 32.7812 78.9238 32.6562V32.3516C78.6582 32.2773 78.3945 32.2148 78.1328 32.1641C77.875 32.1133 77.627 32.0742 77.3887 32.0469C77.1543 32.0156 76.9316 31.9941 76.7207 31.9824C76.5137 31.9707 76.332 31.9648 76.1758 31.9648C75.8516 31.9648 75.582 31.9863 75.3672 32.0293C75.1523 32.0723 74.9785 32.1309 74.8457 32.2051C74.7129 32.2754 74.6191 32.3594 74.5645 32.457C74.5098 32.5547 74.4824 32.6562 74.4824 32.7617ZM82.9551 28.0859H84.6895V28.6719C85.1504 28.4102 85.5898 28.2266 86.0078 28.1211C86.4297 28.0156 86.8418 27.9629 87.2441 27.9629C87.7715 27.9629 88.2598 28.041 88.709 28.1973C89.1582 28.3496 89.5469 28.5781 89.875 28.8828C90.2031 29.1875 90.459 29.5684 90.6426 30.0254C90.8301 30.4785 90.9238 31.0039 90.9238 31.6016V35H89.1953V31.8828C89.1953 31.5039 89.1406 31.166 89.0312 30.8691C88.9258 30.5684 88.7715 30.3164 88.5684 30.1133C88.3691 29.9062 88.125 29.75 87.8359 29.6445C87.5508 29.5352 87.2305 29.4805 86.875 29.4805C86.6875 29.4805 86.4941 29.5 86.2949 29.5391C86.0996 29.5781 85.9062 29.6348 85.7148 29.709C85.5273 29.7793 85.3457 29.8691 85.1699 29.9785C84.9941 30.084 84.834 30.2051 84.6895 30.3418V35H82.9551V28.0859Z" fill="white"/>
<path opacity="0.5" d="M260.74 35V28H263.04C263.587 28 264.037 28.09 264.39 28.27C264.743 28.45 265.003 28.6933 265.17 29C265.343 29.3067 265.43 29.6533 265.43 30.04C265.43 30.42 265.347 30.7633 265.18 31.07C265.013 31.3767 264.753 31.6233 264.4 31.81C264.047 31.99 263.593 32.08 263.04 32.08H261.58V35H260.74ZM261.58 31.37H263.02C263.58 31.37 263.977 31.2533 264.21 31.02C264.45 30.78 264.57 30.4533 264.57 30.04C264.57 29.62 264.45 29.2933 264.21 29.06C263.977 28.82 263.58 28.7 263.02 28.7H261.58V31.37ZM266.481 35V30.04H267.241L267.311 30.99C267.464 30.6633 267.698 30.4033 268.011 30.21C268.324 30.0167 268.711 29.92 269.171 29.92V30.8H268.941C268.648 30.8 268.378 30.8533 268.131 30.96C267.884 31.06 267.688 31.2333 267.541 31.48C267.394 31.7267 267.321 32.0667 267.321 32.5V35H266.481ZM272.158 35.12C271.685 35.12 271.265 35.0133 270.898 34.8C270.532 34.58 270.242 34.2767 270.028 33.89C269.822 33.5033 269.718 33.0467 269.718 32.52C269.718 32 269.822 31.5467 270.028 31.16C270.235 30.7667 270.522 30.4633 270.888 30.25C271.262 30.03 271.692 29.92 272.178 29.92C272.658 29.92 273.072 30.03 273.418 30.25C273.772 30.4633 274.042 30.7467 274.228 31.1C274.415 31.4533 274.508 31.8333 274.508 32.24C274.508 32.3133 274.505 32.3867 274.498 32.46C274.498 32.5333 274.498 32.6167 274.498 32.71H270.548C270.568 33.09 270.655 33.4067 270.808 33.66C270.968 33.9067 271.165 34.0933 271.398 34.22C271.638 34.3467 271.892 34.41 272.158 34.41C272.505 34.41 272.795 34.33 273.028 34.17C273.262 34.01 273.432 33.7933 273.538 33.52H274.368C274.235 33.98 273.978 34.3633 273.598 34.67C273.225 34.97 272.745 35.12 272.158 35.12ZM272.158 30.63C271.758 30.63 271.402 30.7533 271.088 31C270.782 31.24 270.605 31.5933 270.558 32.06H273.678C273.658 31.6133 273.505 31.2633 273.218 31.01C272.932 30.7567 272.578 30.63 272.158 30.63ZM275.622 35V30.04H276.382L276.442 30.76C276.602 30.4933 276.815 30.2867 277.082 30.14C277.348 29.9933 277.648 29.92 277.982 29.92C278.375 29.92 278.712 30 278.992 30.16C279.278 30.32 279.498 30.5633 279.652 30.89C279.825 30.59 280.062 30.3533 280.362 30.18C280.668 30.0067 280.998 29.92 281.352 29.92C281.945 29.92 282.418 30.1 282.772 30.46C283.125 30.8133 283.302 31.36 283.302 32.1V35H282.472V32.19C282.472 31.6767 282.368 31.29 282.162 31.03C281.955 30.77 281.658 30.64 281.272 30.64C280.872 30.64 280.538 30.7967 280.272 31.11C280.012 31.4167 279.882 31.8567 279.882 32.43V35H279.042V32.19C279.042 31.6767 278.938 31.29 278.732 31.03C278.525 30.77 278.228 30.64 277.842 30.64C277.448 30.64 277.118 30.7967 276.852 31.11C276.592 31.4167 276.462 31.8567 276.462 32.43V35H275.622ZM285.077 28.94C284.91 28.94 284.77 28.8867 284.657 28.78C284.55 28.6667 284.497 28.5267 284.497 28.36C284.497 28.2 284.55 28.0667 284.657 27.96C284.77 27.8533 284.91 27.8 285.077 27.8C285.237 27.8 285.374 27.8533 285.487 27.96C285.6 28.0667 285.657 28.2 285.657 28.36C285.657 28.5267 285.6 28.6667 285.487 28.78C285.374 28.8867 285.237 28.94 285.077 28.94ZM284.657 35V30.04H285.497V35H284.657ZM288.77 35.12C288.183 35.12 287.716 34.9433 287.37 34.59C287.023 34.23 286.85 33.68 286.85 32.94V30.04H287.69V32.85C287.69 33.8833 288.113 34.4 288.96 34.4C289.393 34.4 289.75 34.2467 290.03 33.94C290.316 33.6267 290.46 33.1833 290.46 32.61V30.04H291.3V35H290.54L290.48 34.11C290.326 34.4233 290.096 34.67 289.79 34.85C289.49 35.03 289.15 35.12 288.77 35.12ZM292.682 35V30.04H293.442L293.502 30.76C293.662 30.4933 293.876 30.2867 294.142 30.14C294.409 29.9933 294.709 29.92 295.042 29.92C295.436 29.92 295.772 30 296.052 30.16C296.339 30.32 296.559 30.5633 296.712 30.89C296.886 30.59 297.122 30.3533 297.422 30.18C297.729 30.0067 298.059 29.92 298.412 29.92C299.006 29.92 299.479 30.1 299.832 30.46C300.186 30.8133 300.362 31.36 300.362 32.1V35H299.532V32.19C299.532 31.6767 299.429 31.29 299.222 31.03C299.016 30.77 298.719 30.64 298.332 30.64C297.932 30.64 297.599 30.7967 297.332 31.11C297.072 31.4167 296.942 31.8567 296.942 32.43V35H296.102V32.19C296.102 31.6767 295.999 31.29 295.792 31.03C295.586 30.77 295.289 30.64 294.902 30.64C294.509 30.64 294.179 30.7967 293.912 31.11C293.652 31.4167 293.522 31.8567 293.522 32.43V35H292.682Z" fill="white"/>
<path d="M267 175C274.732 175 281 168.732 281 161C281 153.268 274.732 147 267 147C259.268 147 253 153.268 253 161C253 168.732 259.268 175 267 175Z" fill="white" fill-opacity="0.7"/>
<path d="M287 175C294.732 175 301 168.732 301 161C301 153.268 294.732 147 287 147C279.268 147 273 153.268 273 161C273 168.732 279.268 175 287 175Z" fill="white" fill-opacity="0.5"/>
<defs>
<radialGradient id="paint0_radial_15_28" cx="0" cy="0" r="1" gradientUnits="userSpaceOnUse" gradientTransform="translate(73 226.5) rotate(79.9679) scale(206.66 288.948)">
<stop stop-color="#3864FF"/>
<stop offset="1" stop-color="#AE33D9"/>
</radialGradient>
<linearGradient id="paint1_linear_15_28" x1="57" y1="98.2369" x2="19.65" y2="125.287" gradientUnits="userSpaceOnUse">
<stop stop-color="#CDCDCD"/>
<stop offset="0.447917" stop-color="#E8E8E8"/>
<stop offset="1" stop-color="#B4B4B4"/>
</linearGradient>
<linearGradient id="paint2_linear_15_28" x1="57" y1="98.2369" x2="19.65" y2="125.287" gradientUnits="userSpaceOnUse">
<stop stop-color="#CDCDCD"/>
<stop offset="0.447917" stop-color="#E8E8E8"/>
<stop offset="1" stop-color="#B4B4B4"/>
</linearGradient>
</defs>
</svg>
