<svg width="16" height="16" viewBox="0 0 16 16" fill="none" xmlns="http://www.w3.org/2000/svg">
<g clip-path="url(#clip0_34_1337)">
<path d="M11.3334 13.3333H4.66671V14C4.66671 14.1768 4.59647 14.3464 4.47144 14.4714C4.34642 14.5964 4.17685 14.6667 4.00004 14.6667H3.33337C3.15656 14.6667 2.98699 14.5964 2.86197 14.4714C2.73695 14.3464 2.66671 14.1768 2.66671 14V13.3333H2.00004V8H1.33337V5.33333H2.00004V3.33333C2.00004 2.97971 2.14052 2.64057 2.39056 2.39052C2.64061 2.14048 2.97975 2 3.33337 2H12.6667C13.0203 2 13.3595 2.14048 13.6095 2.39052C13.8596 2.64057 14 2.97971 14 3.33333V5.33333H14.6667V8H14V13.3333H13.3334V14C13.3334 14.1768 13.2631 14.3464 13.1381 14.4714C13.0131 14.5964 12.8435 14.6667 12.6667 14.6667H12C11.8232 14.6667 11.6537 14.5964 11.5286 14.4714C11.4036 14.3464 11.3334 14.1768 11.3334 14V13.3333ZM12.6667 8V3.33333H3.33337V8H12.6667ZM12.6667 9.33333H3.33337V12H12.6667V9.33333ZM4.00004 10H6.66671V11.3333H4.00004V10ZM9.33337 10H12V11.3333H9.33337V10Z" fill="#A6A6A6"/>
</g>
<defs>
<clipPath id="clip0_34_1337">
<rect width="16" height="16" fill="white"/>
</clipPath>
</defs>
</svg>
