<svg width="13" height="15" viewBox="0 0 13 15" fill="none" xmlns="http://www.w3.org/2000/svg">
<path d="M6.5 1.83334C5.74855 1.83334 5.02788 2.13185 4.49653 2.6632C3.96518 3.19456 3.66667 3.91523 3.66667 4.66667C3.66667 5.41812 3.96518 6.13879 4.49653 6.67014C5.02788 7.20149 5.74855 7.50001 6.5 7.50001C7.25145 7.50001 7.97212 7.20149 8.50347 6.67014C9.03482 6.13879 9.33333 5.41812 9.33333 4.66667C9.33333 3.91523 9.03482 3.19456 8.50347 2.6632C7.97212 2.13185 7.25145 1.83334 6.5 1.83334ZM2.25 4.66667C2.25 3.5395 2.69777 2.4585 3.4948 1.66147C4.29183 0.864438 5.37283 0.416672 6.5 0.416672C7.62717 0.416672 8.70817 0.864438 9.5052 1.66147C10.3022 2.4585 10.75 3.5395 10.75 4.66667C10.75 5.79384 10.3022 6.87485 9.5052 7.67188C8.70817 8.46891 7.62717 8.91667 6.5 8.91667C5.37283 8.91667 4.29183 8.46891 3.4948 7.67188C2.69777 6.87485 2.25 5.79384 2.25 4.66667ZM3.66667 11.75C3.10308 11.75 2.56258 11.9739 2.16406 12.3724C1.76555 12.7709 1.54167 13.3114 1.54167 13.875C1.54167 14.0629 1.46704 14.243 1.3342 14.3759C1.20136 14.5087 1.02119 14.5833 0.833333 14.5833C0.645472 14.5833 0.465304 14.5087 0.332466 14.3759C0.199628 14.243 0.125 14.0629 0.125 13.875C0.125 12.9357 0.498139 12.0349 1.16233 11.3707C1.82652 10.7065 2.72736 10.3333 3.66667 10.3333H9.33333C10.2726 10.3333 11.1735 10.7065 11.8377 11.3707C12.5019 12.0349 12.875 12.9357 12.875 13.875C12.875 14.0629 12.8004 14.243 12.6675 14.3759C12.5347 14.5087 12.3545 14.5833 12.1667 14.5833C11.9788 14.5833 11.7986 14.5087 11.6658 14.3759C11.533 14.243 11.4583 14.0629 11.4583 13.875C11.4583 13.3114 11.2345 12.7709 10.8359 12.3724C10.4374 11.9739 9.89692 11.75 9.33333 11.75H3.66667Z" fill="#A6A6A6"/>
</svg>
