<svg width="12" height="10" viewBox="0 0 12 10" fill="none" xmlns="http://www.w3.org/2000/svg">
<path d="M6.19529 0.528672C6.32031 0.403691 6.48985 0.333481 6.66663 0.333481C6.8434 0.333481 7.01294 0.403691 7.13796 0.528672L11.138 4.52867C11.2629 4.65369 11.3331 4.82323 11.3331 5.00001C11.3331 5.17678 11.2629 5.34632 11.138 5.47134L7.13796 9.47134C7.01222 9.59278 6.84382 9.65997 6.66902 9.65845C6.49423 9.65694 6.32702 9.58682 6.20341 9.46322C6.07981 9.33961 6.0097 9.1724 6.00818 8.99761C6.00666 8.82281 6.07385 8.65441 6.19529 8.52867L9.05729 5.66667H1.33329C1.15648 5.66667 0.986912 5.59643 0.861888 5.47141C0.736864 5.34639 0.666626 5.17682 0.666626 5.00001C0.666626 4.82319 0.736864 4.65363 0.861888 4.5286C0.986912 4.40358 1.15648 4.33334 1.33329 4.33334H9.05729L6.19529 1.47134C6.07031 1.34632 6.0001 1.17678 6.0001 1.00001C6.0001 0.823229 6.07031 0.65369 6.19529 0.528672Z" fill="#A4A4A4"/>
</svg>
